<?xml version="1.0" standalone="no"?>
<!DOCTYPE svg PUBLIC "-//W3C//DTD SVG 20010904//EN"
 "http://www.w3.org/TR/2001/REC-SVG-20010904/DTD/svg10.dtd">
<svg version="1.0" xmlns="http://www.w3.org/2000/svg"
 width="5802.000000pt" height="5802.000000pt" viewBox="0 0 5802.000000 5802.000000"
 preserveAspectRatio="xMidYMid meet">

<g transform="translate(0.000000,5802.000000) scale(0.100000,-0.100000)"
fill="#000000" stroke="none">
<path d="M29675 57290 c-3407 -106 -6585 -765 -9515 -1972 -1896 -781 -3570
-1768 -5197 -3065 -1509 -1202 -2959 -2681 -4249 -4333 -1050 -1345 -1856
-2592 -2483 -3840 -460 -915 -762 -1669 -1026 -2560 -43 -145 -173 -659 -210
-832 l-17 -76 -71 -47 c-828 -546 -1658 -1314 -2344 -2167 -930 -1156 -1661
-2558 -2069 -3968 -133 -457 -228 -879 -278 -1230 -57 -401 -61 -467 -61
-1025 0 -556 2 -589 61 -1015 146 -1068 551 -2176 1172 -3205 582 -966 1376
-1886 2287 -2651 1140 -957 2437 -1634 3790 -1979 407 -104 836 -185 982 -185
l85 0 -6 -33 c-19 -103 -85 -897 -107 -1292 -27 -477 -33 -1977 -10 -2362 6
-101 15 -263 21 -360 25 -436 74 -1010 120 -1378 5 -44 17 -141 25 -215 9 -74
20 -164 25 -200 6 -36 24 -162 40 -280 147 -1048 360 -2041 680 -3170 95 -336
287 -914 435 -1310 102 -273 292 -740 380 -935 205 -452 392 -837 550 -1125
845 -1549 1791 -2720 3121 -3866 1079 -930 2297 -1731 3674 -2418 303 -151
705 -339 900 -421 51 -22 123 -53 195 -85 11 -5 99 -41 195 -80 96 -39 184
-75 195 -80 42 -20 494 -191 690 -262 301 -109 738 -252 1048 -344 26 -8 71
-21 100 -30 28 -8 66 -19 82 -24 17 -4 129 -36 250 -70 258 -72 664 -175 890
-225 88 -19 178 -39 200 -45 84 -19 266 -59 405 -89 80 -18 163 -36 185 -41
81 -19 334 -70 495 -100 91 -17 185 -35 210 -40 234 -47 967 -158 1325 -201
697 -82 1217 -124 2020 -161 316 -15 1404 -15 1720 0 632 30 990 54 1475 102
306 30 389 39 470 50 41 5 134 17 205 25 165 20 333 43 410 55 33 5 105 16
160 24 528 80 1201 206 1655 311 36 8 88 20 115 25 28 6 196 47 375 91 451
112 782 204 1315 367 159 48 657 215 815 272 63 23 144 52 180 65 353 124
1167 454 1515 615 39 18 108 50 155 72 232 107 328 153 600 289 162 82 342
173 400 204 291 156 326 175 550 302 288 163 700 412 960 581 1204 783 2169
1560 3120 2512 1302 1302 2346 2722 3215 4370 73 138 345 686 345 694 0 2 25
57 56 122 30 66 61 133 69 149 82 183 114 257 183 420 44 105 114 278 157 385
42 107 87 222 100 255 56 143 191 524 280 790 172 519 355 1174 474 1700 18
77 36 158 42 180 5 22 13 60 18 85 5 25 29 146 54 270 79 390 125 658 192
1115 29 197 84 666 105 890 138 1468 112 3031 -76 4465 -41 313 -126 864 -154
1000 -5 25 -19 97 -30 160 -100 544 -231 1106 -396 1701 -30 107 -54 200 -54
206 0 6 21 16 47 22 99 26 305 106 448 176 293 143 516 305 765 554 207 208
363 408 494 635 350 607 516 1303 516 2165 0 286 -32 756 -70 1031 -5 41 -17
127 -25 190 -45 332 -124 761 -181 984 -8 32 -13 60 -11 62 2 2 93 39 203 82
391 155 739 309 1098 489 470 235 760 419 1029 651 473 409 728 939 704 1461
-15 310 -113 563 -333 856 -198 265 -508 556 -1224 1151 -2419 2007 -5185
3708 -8041 4943 l-165 72 -18 87 c-177 872 -436 1924 -677 2750 -439 1510
-935 2809 -1529 4007 -588 1184 -1210 2171 -1975 3130 -1066 1338 -2349 2473
-3725 3297 -697 418 -1338 722 -2067 981 -1077 384 -2204 601 -3533 683 -305
18 -1282 26 -1695 14z m1555 -720 c962 -46 1716 -152 2515 -355 1578 -400
3150 -1245 4549 -2445 1179 -1011 2174 -2204 3029 -3631 975 -1629 1741 -3521
2356 -5824 156 -586 403 -1617 390 -1629 -2 -2 -71 23 -154 55 -471 186 -1163
438 -1700 617 -1621 543 -3081 866 -4415 976 -531 44 -973 60 -1722 60 -362 1
-658 2 -658 4 0 2 17 34 39 70 231 398 400 908 465 1403 87 670 13 1446 -215
2244 -294 1026 -785 2031 -1335 2731 -759 966 -1603 1448 -2918 1664 -895 148
-1951 190 -2881 115 -1182 -96 -2263 -360 -3270 -800 -1102 -481 -1907 -1169
-2475 -2115 -514 -857 -804 -1868 -902 -3150 -15 -205 -15 -773 1 -980 49
-648 171 -1193 398 -1785 279 -727 675 -1239 1213 -1569 l63 -38 -439 -158
c-2578 -925 -5097 -2090 -7494 -3468 -1236 -710 -2194 -1323 -2935 -1878 -366
-274 -606 -492 -789 -719 -111 -138 -150 -216 -150 -301 0 -232 318 -406 548
-301 69 32 107 66 178 161 297 394 705 735 1388 1163 163 102 529 318 870 513
80 46 339 199 575 340 1805 1079 3384 1889 5350 2748 1643 717 3545 1403 5260
1897 2600 748 5236 1219 7775 1389 475 32 572 38 800 47 129 5 318 13 420 19
496 27 1686 28 2190 1 1192 -65 2090 -196 3115 -456 1164 -295 2390 -695 3584
-1170 3026 -1204 6020 -2970 8566 -5055 132 -108 346 -281 475 -385 318 -255
410 -334 584 -504 181 -178 272 -293 337 -426 71 -146 91 -232 92 -390 1 -112
-3 -144 -26 -230 -52 -190 -167 -381 -334 -556 -88 -92 -240 -218 -263 -219
-14 0 -489 196 -1405 580 -348 146 -1047 436 -1475 613 -1605 662 -3004 1193
-4235 1605 -1783 598 -3680 995 -6346 1327 -390 49 -1359 158 -1759 199 -1482
152 -3017 148 -4605 -10 -1270 -126 -2503 -338 -3840 -660 -2252 -542 -4628
-1390 -6995 -2494 -168 -79 -339 -158 -380 -177 -41 -20 -559 -275 -1150 -568
-1557 -772 -2095 -1021 -2775 -1282 -1045 -401 -1773 -582 -2695 -670 -267
-25 -1015 -25 -1289 0 -611 56 -1125 155 -1696 327 -151 46 -178 51 -240 47
-86 -5 -155 -37 -209 -98 -135 -149 -131 -389 10 -519 59 -54 98 -72 285 -128
315 -95 652 -174 989 -231 85 -15 157 -29 160 -32 3 -2 -63 -113 -146 -244
-136 -217 -234 -379 -396 -655 -256 -436 -643 -1202 -894 -1767 -326 -734
-662 -1645 -879 -2383 -133 -453 -257 -915 -335 -1255 -11 -49 -25 -108 -30
-130 -34 -145 -118 -544 -145 -685 -75 -400 -137 -765 -171 -1010 -10 -69 -19
-126 -20 -128 -3 -4 -299 46 -469 79 -1406 280 -2842 978 -4041 1967 -494 407
-974 888 -1370 1373 -676 830 -1206 1781 -1513 2722 -565 1726 -450 3315 383
5289 153 363 453 983 651 1343 634 1156 1432 2116 2408 2899 81 65 150 117
152 114 2 -2 -2 -64 -10 -138 -53 -512 -58 -1212 -14 -1734 11 -132 28 -191
71 -254 119 -173 419 -215 572 -81 80 71 91 102 91 259 -1 74 -6 218 -13 319
-22 339 -14 873 18 1276 31 382 115 936 153 1010 14 28 22 71 28 145 18 258
224 1001 459 1665 274 772 703 1693 1168 2505 430 753 894 1467 1455 2240
1194 1644 2548 3122 4002 4369 1189 1020 2429 1873 3740 2571 1454 775 3066
1410 4730 1866 2093 572 4247 886 6565 954 336 10 1095 4 1400 -10z m-870
-4639 c979 -56 1559 -171 2105 -418 678 -307 1295 -928 1805 -1818 207 -361
446 -871 583 -1245 256 -694 380 -1326 380 -1930 1 -355 -27 -601 -99 -896
-106 -437 -312 -862 -577 -1190 l-65 -81 -134 -7 c-363 -19 -944 -66 -1503
-122 -2764 -276 -5226 -772 -7867 -1585 l-358 -110 -170 57 c-302 100 -588
259 -795 442 -267 236 -470 552 -654 1022 -189 482 -304 975 -353 1525 -16
183 -16 808 0 985 86 923 255 1638 541 2285 386 871 1006 1564 1816 2030 1034
595 2388 970 3815 1055 96 6 200 12 230 14 110 7 1120 -3 1300 -13z m6325
-13955 c698 -42 1481 -116 2280 -217 326 -41 2358 -312 2573 -344 96 -14 178
-25 182 -25 17 0 492 -327 774 -533 903 -658 1607 -1285 2181 -1942 632 -723
1190 -1560 1789 -2680 162 -301 592 -1166 754 -1515 22 -47 67 -143 101 -214
34 -70 61 -130 61 -131 0 -2 30 -65 66 -141 36 -77 75 -159 86 -184 11 -25 36
-79 55 -120 375 -808 600 -1351 866 -2090 83 -232 217 -625 262 -770 62 -198
108 -349 120 -390 41 -140 78 -269 85 -295 5 -16 17 -61 28 -100 117 -408 286
-1128 372 -1585 17 -91 35 -185 40 -210 13 -59 86 -494 99 -590 6 -41 19 -136
30 -210 11 -74 27 -193 36 -265 8 -71 20 -164 25 -205 22 -173 45 -417 80
-845 64 -799 62 -1867 -5 -2735 -45 -573 -132 -1283 -210 -1700 -8 -41 -21
-115 -30 -165 -22 -120 -93 -480 -105 -530 -5 -22 -23 -103 -40 -180 -356
-1612 -992 -3276 -1823 -4775 -509 -918 -1178 -1899 -1807 -2650 -710 -848
-1433 -1569 -2250 -2246 -315 -260 -817 -645 -1101 -844 -891 -623 -1661
-1082 -2628 -1565 -146 -73 -295 -146 -331 -163 -36 -16 -99 -45 -140 -65
-229 -107 -598 -270 -820 -362 -102 -42 -194 -80 -205 -85 -201 -93 -1272
-479 -1650 -594 -44 -13 -141 -43 -215 -66 -523 -160 -1145 -325 -1625 -430
-77 -17 -167 -37 -200 -45 -127 -30 -615 -125 -850 -165 -682 -119 -1210 -187
-2005 -260 -826 -76 -1994 -98 -2905 -55 -434 21 -682 39 -1125 80 -145 14
-238 24 -600 65 -47 6 -116 15 -155 20 -38 6 -151 22 -250 36 -581 81 -1333
221 -1855 344 -69 16 -228 52 -355 80 -1332 290 -2636 729 -4005 1350 -409
185 -1081 534 -1485 770 -44 26 -102 59 -130 75 -269 152 -854 530 -1197 772
-1541 1088 -2645 2224 -3605 3709 -179 276 -410 671 -588 1004 -68 127 -316
627 -375 755 -304 661 -608 1458 -810 2125 -18 58 -38 124 -46 148 -23 71
-142 492 -179 634 -190 726 -355 1510 -460 2193 -9 55 -20 127 -25 160 -19
117 -78 554 -100 740 -64 546 -114 1169 -142 1765 -20 405 -16 1651 5 2060 37
710 92 1331 166 1880 6 41 17 125 25 185 15 107 54 365 81 535 32 193 36 217
44 260 6 25 17 88 26 140 199 1126 566 2455 982 3555 149 396 361 902 528
1260 18 39 49 106 70 150 63 135 312 632 398 790 281 524 521 925 861 1439
l151 228 170 -7 c189 -7 606 7 875 30 941 81 1893 303 2935 685 637 233 1172
471 2670 1185 1978 943 2909 1367 3845 1752 1375 566 2412 915 4035 1358 2313
632 4489 974 6340 998 304 4 1011 -11 1280 -27z m14415 -3590 c58 -24 272
-113 475 -199 204 -85 496 -208 650 -272 154 -64 287 -121 295 -125 30 -17
-473 -244 -862 -389 -120 -45 -221 -81 -226 -81 -5 0 -28 55 -52 123 -96 278
-301 791 -376 940 -14 26 -21 47 -16 47 4 0 55 -20 112 -44z"/>
<path d="M30091 50559 c-350 -31 -565 -140 -660 -334 -82 -165 -82 -375 0
-825 38 -211 139 -1010 139 -1100 0 -25 10 -30 -295 150 -99 59 -335 198 -525
310 -190 112 -453 267 -585 345 -132 78 -357 211 -500 295 -143 84 -347 204
-454 268 -107 63 -217 125 -244 138 -197 91 -456 -30 -507 -236 -9 -36 -7
-101 10 -310 20 -252 57 -731 135 -1735 68 -874 115 -1486 155 -1995 22 -283
52 -668 65 -855 26 -349 35 -405 92 -575 14 -41 42 -106 62 -145 45 -89 163
-210 242 -249 l56 -27 569 -2 c491 -2 587 0 701 15 301 40 436 89 536 197 168
182 186 425 77 1043 -35 195 -146 1106 -136 1115 2 2 104 -65 227 -150 123
-84 337 -230 474 -324 138 -94 558 -381 934 -637 376 -257 700 -476 719 -486
94 -51 210 -47 324 11 103 52 181 153 194 252 3 23 -6 168 -20 322 -25 271
-60 670 -131 1495 -19 217 -48 553 -65 745 -70 803 -109 1246 -175 2010 -88
1014 -85 987 -140 1081 -13 23 -48 62 -76 88 -75 68 -138 83 -369 91 -102 3
-257 10 -345 15 -188 11 -353 10 -484 -1z m409 -764 l225 0 32 -370 c34 -399
86 -1000 133 -1535 51 -580 144 -1644 180 -2060 11 -129 22 -255 25 -279 4
-35 2 -42 -10 -37 -8 3 -92 59 -187 124 -95 65 -402 275 -683 467 -874 597
-963 658 -1215 830 -276 189 -314 211 -386 220 -144 20 -323 -76 -389 -208
-34 -70 -33 -102 20 -568 25 -217 63 -551 85 -744 21 -192 53 -466 70 -609 17
-142 35 -328 40 -415 6 -86 11 -165 13 -176 1 -11 -2 -19 -8 -18 -5 1 -81 7
-168 14 -129 10 -210 10 -424 0 -145 -7 -266 -12 -268 -10 -2 2 -13 126 -24
274 -19 246 -40 517 -146 1880 -74 943 -115 1481 -139 1800 -14 182 -28 354
-31 384 -5 44 -3 52 9 48 16 -6 235 -135 861 -504 215 -127 516 -304 670 -395
154 -91 408 -241 565 -333 506 -299 532 -314 590 -326 164 -35 359 54 426 196
31 65 31 115 -1 380 -14 116 -50 422 -80 680 -30 259 -75 645 -100 859 -25
215 -45 403 -45 419 l0 30 68 -9 c37 -5 168 -9 292 -9z"/>
<path d="M39820 36034 c-98 -9 -280 -36 -375 -55 -701 -140 -1335 -584 -1771
-1240 -372 -561 -564 -1218 -564 -1934 0 -889 296 -1727 892 -2525 95 -127
123 -155 248 -256 218 -174 402 -268 774 -396 231 -79 363 -111 591 -145 152
-22 675 -25 860 -5 610 67 985 157 1310 316 605 295 1010 793 1214 1489 106
361 149 701 158 1247 11 693 -31 1180 -139 1605 -156 616 -415 996 -896 1313
-408 269 -1044 486 -1663 568 -110 14 -545 26 -639 18z m1650 -679 c139 -38
220 -92 301 -202 227 -306 -7 -672 -463 -723 -141 -16 -388 21 -503 75 -144
68 -229 197 -245 372 -9 95 2 152 46 233 72 132 263 235 484 261 105 12 307 3
380 -16z"/>
<path d="M26385 32914 c-621 -68 -1174 -336 -1632 -792 -452 -450 -763 -1037
-893 -1682 -101 -504 -101 -976 1 -1497 118 -606 392 -1198 817 -1769 96 -129
154 -186 297 -293 182 -137 397 -249 614 -322 67 -22 150 -51 184 -64 154 -58
354 -99 631 -130 166 -19 531 -17 726 4 704 75 1103 180 1460 382 457 259 795
654 998 1164 203 509 280 1171 242 2075 -27 631 -109 1070 -276 1469 -147 351
-391 641 -730 866 -375 250 -935 458 -1494 555 -281 49 -674 63 -945 34z
m1675 -888 c190 -34 295 -97 387 -233 123 -181 93 -393 -76 -545 -109 -98
-305 -168 -473 -168 -163 0 -374 46 -473 104 -92 54 -173 179 -196 301 -35
190 45 353 221 448 155 84 427 126 610 93z"/>
<path d="M34723 25916 c-182 -46 -314 -187 -343 -370 -21 -131 25 -282 113
-370 71 -70 110 -86 287 -117 166 -28 347 74 427 240 36 72 37 81 37 176 0
118 -20 180 -87 270 -96 131 -291 207 -434 171z"/>
<path d="M22293 21915 c-93 -29 -175 -98 -204 -173 -15 -40 -66 -270 -113
-515 -174 -905 -247 -1790 -218 -2644 35 -998 186 -1850 482 -2716 314 -918
826 -1809 1445 -2512 146 -166 496 -532 519 -543 41 -19 89 -66 209 -211 630
-757 1502 -1326 2732 -1781 1304 -483 2883 -795 4560 -902 258 -16 1071 -16
1315 0 1130 77 2031 258 3660 739 953 280 1558 515 2305 893 765 388 1407 807
2025 1325 549 460 1120 1029 1425 1420 365 467 558 959 543 1385 -3 98 -7 123
-30 172 -65 140 -123 178 -319 208 -736 112 -1500 280 -3084 676 -672 168
-1105 275 -2600 639 -2396 583 -3085 755 -4060 1011 -1112 292 -1796 487
-3510 1001 -2527 756 -3825 1228 -5115 1860 -738 362 -1046 492 -1400 592
-294 83 -470 107 -567 76z"/>
</g>
</svg>
