<?xml version="1.0" standalone="no"?>
<!DOCTYPE svg PUBLIC "-//W3C//DTD SVG 20010904//EN"
 "http://www.w3.org/TR/2001/REC-SVG-20010904/DTD/svg10.dtd">
<svg version="1.0" xmlns="http://www.w3.org/2000/svg"
 width="6817.000000pt" height="6736.000000pt" viewBox="0 0 6817.000000 6736.000000"
 preserveAspectRatio="xMidYMid meet">

<g transform="translate(0.000000,6736.000000) scale(0.100000,-0.100000)"
fill="#000000" stroke="none">
<path d="M32580 57330 c-30 -5 -127 -8 -215 -9 -88 -1 -257 -6 -375 -11 -832
-40 -927 -45 -1260 -70 -395 -30 -807 -66 -1025 -90 -49 -6 -193 -22 -320 -35
-126 -14 -261 -30 -300 -35 -38 -5 -108 -14 -155 -20 -197 -26 -566 -77 -645
-90 -116 -19 -251 -40 -345 -55 -99 -15 -263 -43 -415 -70 -84 -15 -111 -20
-247 -44 -118 -21 -736 -148 -858 -176 -14 -4 -43 -10 -65 -15 -212 -48 -308
-71 -550 -131 -294 -72 -466 -117 -575 -149 -36 -10 -101 -29 -145 -40 -143
-39 -321 -90 -500 -145 -66 -20 -145 -44 -175 -53 -82 -24 -736 -244 -880
-296 -279 -100 -312 -113 -520 -193 -65 -25 -91 -35 -132 -52 -13 -5 -142 -58
-288 -117 -146 -59 -287 -117 -315 -129 -27 -12 -86 -38 -130 -58 -235 -103
-350 -155 -494 -223 -62 -30 -115 -54 -118 -54 -2 0 -149 -72 -326 -160 -303
-150 -454 -228 -642 -330 -44 -24 -109 -59 -145 -78 -36 -19 -148 -82 -250
-140 -102 -58 -201 -114 -220 -125 -19 -10 -39 -23 -45 -27 -5 -4 -30 -19 -55
-32 -88 -49 -297 -177 -550 -337 -733 -462 -1504 -1021 -2099 -1520 -63 -53
-130 -109 -151 -126 -48 -40 -146 -124 -305 -265 -1351 -1192 -2622 -2647
-3649 -4180 -261 -388 -608 -940 -774 -1231 -11 -19 -36 -63 -57 -99 -21 -36
-49 -85 -63 -109 -14 -25 -38 -67 -53 -93 -16 -27 -29 -51 -29 -53 0 -2 -26
-50 -58 -107 -63 -110 -121 -218 -227 -418 -81 -153 -333 -659 -397 -795 -26
-55 -72 -153 -102 -219 -31 -65 -56 -119 -56 -121 0 -2 -15 -36 -34 -77 -49
-104 -147 -328 -191 -433 -20 -49 -45 -108 -55 -130 -50 -112 -276 -681 -345
-870 -152 -418 -279 -787 -383 -1120 -68 -216 -149 -487 -176 -585 -8 -30 -24
-86 -35 -125 -26 -94 -56 -204 -96 -360 -19 -71 -41 -157 -50 -190 -14 -55
-34 -137 -86 -360 -10 -44 -33 -143 -49 -220 -17 -77 -35 -158 -40 -180 -11
-46 -56 -266 -70 -340 -6 -27 -19 -95 -30 -150 -27 -137 -86 -479 -124 -720
-36 -227 -75 -522 -115 -865 -49 -416 -91 -918 -111 -1345 -6 -121 -13 -249
-16 -285 -12 -142 -16 -1247 -5 -1385 6 -77 15 -270 21 -430 36 -989 143
-1500 446 -2130 406 -844 1096 -1535 1884 -1885 286 -127 446 -178 710 -229
214 -41 356 -54 617 -54 l252 -1 5 -61 c3 -33 8 -168 11 -300 8 -352 34 -837
65 -1225 20 -252 60 -707 70 -785 5 -44 14 -123 20 -175 28 -257 57 -504 70
-585 5 -33 14 -96 19 -140 23 -176 70 -489 91 -615 5 -30 21 -127 35 -215 14
-88 30 -182 36 -210 5 -27 25 -138 45 -245 36 -199 116 -611 134 -687 14 -58
26 -114 45 -203 21 -100 29 -133 64 -280 17 -69 39 -165 50 -215 26 -113 123
-489 185 -715 8 -30 18 -66 22 -80 20 -74 146 -509 154 -530 5 -14 25 -79 45
-145 45 -149 229 -700 285 -855 52 -144 109 -299 120 -325 4 -11 43 -110 85
-220 82 -211 90 -232 124 -307 11 -26 21 -50 21 -53 0 -4 9 -25 19 -48 10 -23
35 -82 56 -132 20 -49 45 -108 55 -130 144 -324 154 -345 260 -570 89 -191
396 -797 420 -830 4 -5 29 -50 55 -100 27 -49 68 -123 92 -163 24 -41 43 -76
43 -78 0 -2 11 -21 24 -42 13 -20 63 -104 112 -187 448 -764 1027 -1564 1618
-2235 365 -415 859 -911 1279 -1284 l148 -131 -5 -425 c-2 -234 -9 -542 -16
-685 -6 -143 -14 -369 -18 -503 l-7 -244 -215 -115 c-118 -63 -287 -153 -375
-201 -253 -135 -305 -169 -1032 -685 -283 -201 -718 -584 -1414 -1247 -107
-102 -228 -215 -269 -252 -109 -97 -776 -788 -920 -953 -109 -124 -285 -336
-492 -594 -79 -98 -218 -302 -308 -451 -59 -96 -179 -285 -520 -810 -188 -290
-224 -353 -453 -785 -125 -236 -366 -726 -464 -945 -127 -282 -234 -560 -368
-960 -73 -217 -153 -450 -179 -518 -25 -68 -46 -125 -46 -128 0 -2 240 -3 533
-2 l532 3 120 360 c66 198 138 403 159 455 131 324 343 779 516 1110 292 558
316 599 645 1105 125 193 285 442 355 555 188 301 307 458 672 885 172 202
769 818 1013 1046 94 87 289 271 435 410 365 346 758 693 946 836 44 33 176
127 294 209 118 83 278 196 355 251 123 89 433 273 460 273 11 0 6 -264 -14
-745 -6 -154 -16 -406 -21 -560 -9 -267 -30 -606 -67 -1110 -14 -190 -17 -394
-18 -1170 -2 -895 -4 -1004 -35 -1478 -5 -81 -10 -554 -10 -1050 0 -836 -2
-985 -15 -1279 l-5 -108 498 0 499 0 8 58 c4 31 10 588 14 1237 3 649 9 1185
13 1190 16 25 30 647 32 1460 2 724 5 932 19 1115 37 491 58 843 67 1142 5
172 17 477 25 678 9 201 20 743 25 1205 8 680 32 1591 43 1601 1 1 54 -37 118
-84 462 -347 1010 -720 1474 -1005 164 -101 457 -277 460 -277 2 0 64 -36 140
-80 76 -44 139 -80 141 -80 2 0 25 -13 52 -29 61 -36 130 -74 247 -136 50 -26
95 -51 100 -55 44 -32 1080 -550 1100 -550 3 0 57 -25 253 -116 41 -19 75 -34
77 -34 2 0 36 -15 77 -34 40 -18 145 -64 233 -101 88 -37 178 -75 200 -85 22
-10 76 -32 120 -50 44 -17 94 -37 110 -45 41 -19 429 -170 545 -212 52 -19
138 -51 190 -70 280 -103 679 -239 975 -331 88 -28 198 -62 245 -77 47 -15 99
-31 115 -35 17 -5 86 -25 155 -45 191 -56 316 -90 550 -153 208 -56 605 -154
780 -192 52 -11 115 -25 140 -31 25 -6 63 -14 85 -19 22 -5 90 -20 150 -34 61
-13 126 -27 145 -31 19 -4 51 -11 70 -15 268 -60 415 -91 685 -145 359 -72
610 -117 945 -169 91 -15 192 -31 225 -36 90 -15 319 -48 410 -59 44 -6 116
-15 160 -21 151 -20 443 -54 605 -70 52 -5 140 -14 195 -20 368 -40 1016 -84
1655 -112 325 -15 1590 -15 1905 0 810 37 1260 69 1910 137 312 32 925 110
1140 145 33 5 103 16 155 24 231 37 479 77 520 86 25 5 88 16 140 25 93 16
145 26 245 46 28 5 140 27 250 49 344 68 694 145 982 215 78 19 177 43 220 54
81 20 346 88 443 115 30 8 91 24 135 36 128 34 587 167 745 216 189 58 896
291 980 322 92 34 154 56 240 87 308 110 1044 399 1235 485 22 10 69 30 105
45 36 15 83 35 105 45 22 10 101 45 175 78 74 33 176 79 225 102 50 23 140 65
200 92 219 100 979 482 1150 577 28 16 82 45 120 66 39 21 104 57 145 80 41
23 98 54 125 70 28 15 95 53 150 85 55 32 116 67 135 77 80 46 314 185 440
263 74 46 182 112 240 148 321 198 859 563 1275 866 236 172 631 476 850 654
28 23 54 42 57 42 3 0 8 -804 11 -1787 3 -984 10 -1959 16 -2168 6 -209 15
-582 21 -830 48 -2100 53 -2536 46 -4132 l-7 -1463 499 0 500 0 7 1397 c4 768
5 1575 1 1792 -14 826 -26 1501 -36 1926 -6 242 -17 726 -25 1075 -8 349 -15
710 -15 802 l0 167 38 10 c20 5 93 24 162 41 247 62 479 166 800 360 499 300
681 451 1075 895 606 682 966 1201 1317 1901 84 167 156 303 159 301 8 -3 105
-117 264 -312 204 -249 450 -534 730 -845 136 -151 340 -383 454 -515 113
-132 275 -318 361 -414 355 -397 439 -496 973 -1155 54 -66 171 -222 259 -346
164 -228 324 -441 612 -810 300 -385 618 -823 921 -1267 54 -80 183 -309 385
-683 95 -178 368 -630 545 -905 78 -121 162 -252 187 -290 63 -99 228 -389
228 -402 0 -6 -82 -85 -182 -176 -200 -180 -970 -952 -1189 -1192 -190 -208
-513 -586 -618 -724 -48 -64 -139 -190 -201 -281 -62 -91 -134 -194 -160 -230
-26 -36 -55 -77 -65 -92 l-17 -28 610 0 610 0 94 118 c102 126 328 389 467
542 149 165 942 963 1097 1106 82 75 228 206 324 290 96 84 193 175 215 203
101 129 141 249 132 400 -7 119 -32 187 -149 393 -74 132 -98 183 -93 198 9
27 162 255 390 580 407 581 805 1190 805 1234 0 27 14 53 96 178 92 141 243
452 412 848 23 52 63 147 91 210 27 63 53 129 57 145 4 17 18 52 31 78 13 27
32 81 42 120 11 40 30 97 44 127 13 30 30 82 37 115 8 33 25 85 40 115 15 30
33 80 40 110 7 30 25 80 41 111 15 30 35 84 44 119 9 35 30 90 46 122 16 32
35 84 43 115 7 32 25 81 39 110 15 28 35 82 46 120 10 38 30 91 44 119 14 27
33 77 42 109 9 33 29 87 46 120 16 33 36 89 45 125 9 36 27 87 41 113 13 27
33 82 43 122 10 40 30 96 44 124 15 28 33 81 41 118 9 38 26 91 39 118 27 57
41 103 51 157 3 21 17 62 31 92 14 30 31 85 39 123 8 38 26 94 39 125 13 30
30 84 36 119 6 35 22 89 35 119 13 30 29 84 35 120 6 36 22 90 35 120 13 30
29 84 35 120 7 36 23 94 37 128 13 35 31 96 38 135 8 40 25 104 39 142 14 39
26 85 26 103 0 18 11 59 25 92 13 32 31 96 39 142 9 46 24 107 36 135 11 29
23 79 26 110 4 32 18 86 30 120 13 35 27 89 30 120 4 32 17 86 30 119 13 34
26 86 30 115 3 30 19 96 35 147 16 51 29 107 29 125 0 19 12 67 26 108 14 41
28 99 31 129 3 30 15 87 28 125 13 39 26 101 30 139 4 38 13 87 21 110 8 22
19 71 24 108 5 37 21 101 35 142 14 41 25 91 25 112 0 21 11 70 25 109 13 40
27 98 31 131 3 32 17 94 30 137 13 43 24 97 24 120 0 23 11 77 25 120 14 43
25 97 25 121 0 24 9 74 21 111 11 37 24 102 29 144 4 42 15 96 24 121 9 24 21
81 25 125 5 44 16 100 26 125 9 25 18 74 21 110 3 36 14 94 24 130 11 36 24
103 29 150 6 47 17 110 26 140 8 30 15 75 15 101 0 26 7 66 15 90 9 24 20 82
25 129 5 47 16 105 25 130 9 25 19 77 22 115 3 39 14 95 24 126 10 31 21 87
25 125 3 38 15 98 25 133 10 35 19 85 19 111 0 27 9 77 20 112 11 34 23 92 26
128 3 36 14 94 24 130 11 36 24 103 29 150 6 47 17 110 26 140 8 30 15 77 15
105 0 27 9 79 20 113 11 35 20 89 20 120 0 32 9 90 20 131 11 41 20 102 20
135 0 34 7 84 16 111 8 28 17 90 19 138 3 49 10 108 16 130 6 23 12 85 13 138
2 52 6 101 11 108 8 15 27 247 30 386 1 50 6 124 11 165 10 81 10 355 0 565
-3 72 -8 173 -10 225 -2 52 -8 167 -14 255 -15 203 -20 334 -26 620 -5 280
-22 883 -32 1140 -2 72 -6 173 -8 225 -1 52 -8 169 -15 260 -6 91 -13 210 -15
265 -2 55 -9 159 -15 230 -25 313 -33 426 -35 511 -2 49 -9 114 -16 143 -7 29
-10 69 -8 89 3 21 1 64 -4 97 -4 33 -13 116 -18 185 -6 69 -15 178 -20 243
-15 178 -28 338 -39 482 -5 72 -14 145 -20 162 -5 18 -7 57 -4 85 3 31 -2 84
-11 128 -9 41 -16 107 -16 145 0 39 -7 95 -15 125 -8 30 -15 89 -15 130 0 41
-7 100 -15 130 -8 30 -15 82 -15 115 0 33 -7 85 -16 115 -8 30 -19 96 -23 146
-5 50 -15 113 -24 140 -8 27 -18 82 -21 122 -4 40 -15 99 -25 130 -10 31 -22
88 -25 126 -4 37 -16 94 -26 125 -11 31 -24 90 -30 132 -5 42 -18 98 -28 125
-11 27 -22 78 -26 113 -4 36 -16 87 -27 115 -11 28 -27 88 -35 133 -8 45 -26
112 -39 148 -14 36 -25 80 -25 98 0 17 -12 64 -25 102 -14 39 -32 107 -40 151
-8 45 -24 104 -36 130 -11 27 -25 77 -30 111 -5 34 -22 95 -37 135 -16 40 -32
95 -35 121 -4 26 -20 80 -36 120 -16 40 -34 99 -41 132 -7 33 -24 87 -39 120
-15 33 -33 87 -40 120 -7 33 -26 87 -41 120 -15 33 -35 91 -44 129 -9 37 -29
91 -43 120 -14 28 -32 78 -40 111 -8 33 -29 89 -47 125 -18 36 -38 88 -45 115
-6 28 -29 86 -51 130 -21 44 -46 105 -55 135 -9 30 -31 80 -49 110 -19 30 -41
80 -49 110 -9 30 -31 80 -50 110 -49 80 -54 90 -72 144 -10 26 -37 77 -61 113
-24 36 -59 97 -78 137 -19 39 -52 92 -74 116 -21 25 -54 74 -73 110 -19 36
-64 96 -100 135 -36 38 -75 86 -87 106 -12 20 -55 68 -94 108 -40 39 -116 117
-170 173 -120 129 -173 182 -229 233 -24 22 -64 62 -88 89 -24 26 -67 63 -95
81 -28 18 -77 58 -108 89 -31 30 -85 69 -120 87 -35 17 -84 49 -109 70 -83 69
-293 154 -639 259 -58 18 -124 38 -148 46 -23 8 -53 14 -65 14 -12 0 -78 11
-147 24 -242 48 -388 59 -705 53 -172 -3 -347 -12 -430 -21 -227 -27 -523 -75
-630 -103 -359 -93 -807 -374 -1161 -727 -159 -159 -516 -582 -612 -726 -135
-201 -547 -1082 -668 -1427 -10 -29 -21 -53 -24 -53 -4 0 -12 96 -19 213 -6
116 -16 262 -22 322 -58 664 -83 894 -160 1435 -55 389 -72 497 -128 805 -11
61 -27 151 -36 200 -18 102 -54 282 -91 460 -24 118 -32 154 -53 245 -6 25
-18 79 -27 120 -17 80 -74 316 -122 515 -26 105 -51 200 -106 405 -8 30 -24
91 -36 135 -25 97 -59 211 -72 247 -11 30 -4 48 18 48 21 0 316 101 394 136
854 373 1507 1088 1863 2044 64 171 134 416 171 600 54 267 65 345 106 775 13
139 13 729 0 883 -5 65 -17 203 -25 307 -21 256 -80 726 -115 925 -5 30 -14
87 -21 125 -19 121 -71 393 -89 470 -5 22 -21 92 -36 155 -163 705 -402 1400
-729 2115 -72 159 -318 658 -335 680 -4 6 -29 51 -55 100 -227 427 -549 949
-880 1425 -227 327 -578 792 -849 1125 -224 275 -603 713 -777 900 -31 33
-101 110 -156 170 -92 101 -202 210 -344 340 -464 429 -514 477 -684 676 -114
133 -257 291 -315 349 -220 222 -1134 948 -1639 1304 -79 55 -171 120 -205
144 -323 228 -980 645 -1296 824 -211 120 -329 185 -465 258 -44 24 -105 57
-135 73 -121 67 -830 417 -845 417 -1 0 -51 23 -109 50 -58 28 -108 50 -110
50 -2 0 -37 15 -78 34 -40 19 -113 51 -163 71 -49 21 -109 46 -132 56 -23 10
-44 19 -48 19 -3 0 -27 9 -53 21 -26 12 -56 25 -67 30 -33 14 -396 156 -460
179 -420 152 -787 271 -1150 374 -360 101 -790 208 -1095 271 -69 14 -143 30
-165 35 -44 11 -229 47 -405 80 -63 12 -135 25 -160 30 -25 5 -171 30 -325 55
-154 25 -307 50 -340 55 -66 11 -483 70 -665 94 -63 8 -182 24 -265 36 -82 11
-186 25 -230 30 -44 6 -109 15 -145 21 -36 5 -137 18 -225 29 -88 12 -191 25
-230 30 -38 5 -142 19 -230 30 -198 26 -367 48 -465 61 -110 14 -613 78 -700
89 -41 5 -172 21 -290 35 -118 14 -251 30 -295 36 -44 5 -118 14 -165 19 -77
10 -421 49 -560 65 -30 3 -89 10 -130 15 -103 13 -225 26 -500 55 -129 13
-275 29 -325 34 -169 19 -280 30 -445 46 -160 15 -246 23 -455 45 -87 9 -306
28 -805 70 -69 6 -174 15 -235 20 -125 11 -459 36 -960 70 -606 42 -1236 72
-2100 102 -374 13 -2184 19 -2265 8z m5235 -4751 c365 -15 699 -34 1030 -58
325 -25 417 -32 520 -41 61 -6 158 -15 218 -20 251 -23 663 -63 822 -80 55 -6
138 -15 185 -20 232 -25 563 -64 750 -89 114 -15 427 -60 495 -70 33 -5 92
-14 130 -20 68 -10 438 -72 540 -91 28 -5 102 -18 165 -30 63 -11 149 -28 190
-37 41 -8 93 -19 115 -24 518 -107 992 -227 1440 -364 142 -43 512 -165 605
-200 36 -13 128 -47 205 -75 77 -29 154 -58 170 -65 17 -8 91 -38 166 -69 75
-30 156 -63 180 -74 24 -11 82 -36 129 -57 379 -165 956 -463 1301 -673 446
-271 1293 -818 1734 -1121 499 -342 918 -650 1276 -938 95 -76 186 -149 203
-163 292 -233 802 -697 1102 -1002 909 -923 1644 -1963 2469 -3493 136 -252
585 -1144 718 -1425 19 -41 67 -142 107 -225 40 -82 98 -206 130 -275 32 -69
79 -170 105 -225 26 -55 60 -127 75 -160 15 -33 49 -104 74 -158 25 -55 46
-100 46 -102 0 -1 27 -58 59 -126 32 -68 79 -169 104 -224 25 -55 59 -131 77
-170 45 -97 240 -545 240 -550 0 -2 11 -28 24 -57 13 -29 54 -127 91 -218 67
-167 71 -177 98 -240 18 -42 151 -386 200 -520 79 -211 141 -380 174 -475 66
-190 262 -780 293 -885 17 -58 47 -157 67 -220 19 -63 39 -131 44 -150 6 -19
14 -48 19 -65 51 -178 96 -336 115 -410 13 -49 31 -117 40 -150 55 -204 165
-654 205 -835 146 -664 249 -1223 326 -1765 7 -55 18 -129 24 -165 23 -150 82
-669 110 -965 36 -388 67 -892 80 -1335 10 -327 4 -1251 -10 -1495 -47 -858
-77 -1187 -170 -1900 -19 -148 -78 -536 -99 -650 -66 -363 -84 -458 -112 -600
-17 -82 -59 -278 -94 -435 -78 -348 -148 -623 -255 -1015 -4 -16 -25 -86 -45
-155 -20 -69 -40 -138 -45 -155 -63 -225 -253 -805 -340 -1040 -10 -27 -30
-84 -45 -125 -25 -69 -92 -248 -167 -445 -29 -75 -48 -122 -69 -170 -4 -11
-22 -56 -40 -100 -17 -44 -37 -93 -44 -110 -8 -16 -48 -111 -90 -210 -42 -99
-87 -202 -100 -230 -12 -27 -37 -84 -55 -125 -18 -41 -59 -131 -91 -199 -33
-68 -59 -125 -59 -127 0 -8 -330 -671 -385 -774 -31 -58 -79 -148 -107 -200
-28 -52 -67 -124 -88 -160 -20 -36 -50 -90 -67 -120 -212 -393 -631 -1068
-945 -1525 -737 -1072 -1490 -1969 -2413 -2875 -373 -367 -431 -418 -525 -463
-98 -48 -178 -121 -231 -212 -27 -47 -68 -88 -184 -188 -596 -512 -1268 -1022
-1923 -1461 -359 -240 -835 -541 -1062 -671 -30 -18 -106 -62 -168 -98 -62
-37 -132 -78 -155 -91 -23 -13 -58 -32 -77 -43 -19 -11 -55 -31 -80 -45 -25
-14 -61 -34 -80 -45 -55 -31 -323 -175 -460 -248 -151 -79 -735 -372 -875
-437 -55 -26 -148 -69 -206 -96 -58 -27 -204 -93 -325 -147 -120 -53 -232
-102 -249 -110 -16 -7 -59 -25 -95 -40 -36 -15 -83 -35 -105 -45 -22 -10 -125
-53 -230 -95 -104 -42 -199 -80 -210 -85 -151 -62 -578 -224 -845 -320 -157
-56 -858 -290 -1005 -335 -66 -20 -138 -43 -160 -50 -22 -7 -206 -60 -410
-118 -498 -142 -830 -227 -1350 -347 -22 -5 -94 -21 -160 -35 -66 -14 -138
-30 -160 -36 -40 -9 -410 -84 -495 -100 -25 -4 -108 -20 -185 -34 -473 -88
-934 -159 -1457 -225 -43 -6 -113 -14 -155 -20 -84 -11 -377 -42 -660 -70
-326 -32 -807 -63 -1393 -92 -321 -15 -1583 -15 -1900 0 -579 28 -1030 58
-1390 92 -264 26 -709 75 -892 100 -43 5 -111 14 -150 20 -126 16 -361 50
-423 60 -33 5 -132 21 -220 35 -88 13 -185 29 -215 35 -30 5 -145 26 -255 46
-200 36 -614 116 -690 134 -22 5 -116 26 -210 46 -93 20 -195 43 -225 51 -30
8 -131 31 -225 50 -93 19 -186 39 -205 43 -143 31 -346 80 -630 150 -112 28
-306 78 -385 101 -104 29 -130 36 -245 68 -58 16 -172 50 -255 74 -82 25 -197
60 -255 77 -58 17 -143 44 -190 60 -47 15 -141 46 -210 68 -69 22 -215 72
-325 110 -204 71 -235 82 -410 147 -55 20 -140 52 -190 70 -175 65 -644 253
-759 305 -23 10 -81 34 -131 55 -49 20 -110 46 -135 57 -25 11 -70 32 -100 45
-30 14 -83 38 -118 54 -35 16 -65 29 -67 29 -2 0 -52 23 -112 51 -59 28 -124
58 -143 66 -73 33 -741 365 -855 426 -127 67 -250 133 -325 175 -25 14 -70 38
-100 55 -99 54 -252 142 -395 227 -77 45 -153 90 -170 100 -219 126 -769 480
-1045 672 -186 128 -227 158 -386 273 -456 328 -1069 823 -1414 1140 -30 27
-86 79 -125 115 -244 224 -727 719 -971 995 -581 657 -1133 1415 -1606 2205
-80 135 -179 305 -223 385 -15 28 -51 93 -80 145 -119 213 -410 787 -498 980
-8 19 -31 69 -50 110 -19 41 -44 98 -57 125 -12 28 -35 78 -51 113 -16 35 -29
65 -29 67 0 3 -11 29 -25 59 -27 59 -163 389 -238 576 -125 313 -311 832 -414
1155 -46 146 -123 393 -133 430 -5 17 -40 138 -79 270 -88 305 -248 915 -280
1070 -5 22 -25 112 -45 200 -21 88 -41 180 -46 205 -5 25 -18 86 -29 135 -88
408 -155 775 -256 1400 -15 90 -58 389 -75 520 -32 245 -58 459 -80 663 -5 50
-15 134 -20 185 -12 109 -54 600 -69 812 -48 673 -56 931 -56 1850 0 915 8
1176 55 1845 22 302 72 852 99 1075 6 44 17 139 25 210 15 123 25 202 47 358
5 37 13 97 18 135 29 210 93 611 136 847 17 92 28 155 44 248 29 161 133 663
166 802 8 33 28 121 44 195 28 124 159 648 195 780 8 30 22 81 31 114 36 134
66 243 74 266 5 14 18 57 29 95 11 39 28 97 37 130 44 153 187 601 247 775 27
80 58 170 68 200 103 317 468 1251 600 1537 11 24 20 45 20 47 0 3 13 33 29
68 16 35 39 86 51 113 134 298 196 430 374 785 129 257 180 357 266 515 15 28
46 86 70 130 56 104 305 541 383 670 1001 1670 2191 3113 3607 4376 861 767
1936 1554 2980 2181 216 130 644 377 780 450 84 45 204 110 360 193 143 76
705 357 855 427 55 26 148 69 206 96 58 27 204 93 325 147 120 53 233 102 249
110 17 7 59 25 95 40 36 15 83 35 105 45 193 87 1057 425 1225 480 14 4 70 24
125 45 55 20 145 51 200 70 55 18 165 56 245 83 207 71 495 164 765 247 66 20
147 45 180 55 79 24 671 190 805 225 58 15 134 35 170 45 150 42 683 170 980
235 53 12 502 103 600 122 14 3 115 23 225 45 110 22 223 43 250 48 28 5 136
25 240 45 105 20 213 40 240 45 201 37 348 63 395 70 30 5 82 14 115 20 238
41 715 113 1005 150 47 6 117 15 155 20 317 41 798 85 1206 111 450 28 1342
32 1914 8z m24381 -18109 c147 -12 313 -39 459 -76 185 -47 506 -173 610 -239
68 -43 178 -138 239 -205 23 -24 61 -63 86 -85 24 -22 58 -55 75 -74 16 -19
66 -72 110 -117 122 -127 208 -224 242 -275 17 -25 39 -51 48 -59 9 -8 28 -37
42 -64 14 -28 41 -73 60 -100 20 -27 49 -79 65 -115 16 -36 41 -81 54 -99 14
-17 34 -58 45 -90 11 -31 34 -82 53 -112 18 -30 38 -75 45 -100 7 -25 27 -72
45 -105 18 -33 38 -82 45 -109 6 -26 27 -78 45 -115 18 -36 38 -88 45 -116 7
-27 25 -75 40 -105 15 -30 35 -86 45 -124 9 -37 27 -89 40 -115 13 -25 29 -71
35 -101 7 -30 25 -84 41 -120 16 -36 34 -90 40 -120 6 -30 21 -79 35 -108 13
-28 29 -80 35 -114 7 -35 22 -88 35 -118 13 -30 29 -84 35 -120 6 -36 22 -90
34 -120 13 -31 26 -80 30 -109 4 -29 16 -77 27 -105 11 -28 27 -88 35 -133 8
-46 24 -104 35 -129 11 -26 24 -77 29 -113 5 -37 20 -96 33 -131 13 -36 27
-91 31 -123 3 -32 13 -75 22 -95 8 -20 22 -75 29 -122 8 -47 23 -112 35 -144
11 -33 20 -76 20 -97 0 -20 9 -67 20 -103 12 -37 25 -101 30 -144 5 -42 16
-97 24 -121 9 -24 16 -67 16 -95 0 -28 9 -84 20 -124 11 -39 20 -93 20 -120 0
-26 6 -72 14 -102 7 -30 16 -95 19 -145 3 -49 10 -103 16 -118 6 -16 11 -63
11 -106 0 -42 7 -104 16 -136 8 -33 13 -76 11 -95 -3 -19 -1 -60 4 -90 5 -30
14 -111 20 -180 5 -69 14 -174 19 -235 5 -60 13 -171 19 -245 5 -74 14 -148
19 -165 5 -16 7 -55 5 -85 -3 -30 2 -88 11 -128 9 -42 13 -93 9 -121 -3 -28 1
-81 11 -127 8 -43 13 -95 10 -115 -3 -19 0 -69 7 -110 7 -41 12 -101 10 -134
-1 -33 3 -90 9 -127 7 -37 13 -105 15 -150 1 -46 8 -150 15 -233 6 -82 13
-193 14 -245 2 -52 10 -234 19 -405 16 -297 21 -449 33 -960 6 -319 12 -508
18 -660 4 -71 8 -173 9 -225 2 -52 9 -167 15 -255 28 -385 29 -693 3 -1030
-25 -315 -31 -373 -40 -415 -6 -25 -10 -70 -11 -100 0 -30 -7 -87 -15 -125 -8
-39 -15 -93 -15 -122 0 -29 -7 -78 -15 -110 -8 -31 -15 -83 -15 -114 0 -31 -7
-76 -16 -100 -8 -24 -19 -84 -24 -134 -5 -49 -16 -115 -25 -145 -8 -30 -15
-75 -15 -100 0 -25 -9 -73 -20 -107 -11 -35 -22 -93 -26 -130 -3 -38 -12 -89
-21 -116 -8 -26 -18 -80 -23 -120 -4 -39 -17 -108 -29 -151 -11 -44 -21 -98
-21 -121 0 -24 -7 -62 -16 -86 -8 -24 -19 -81 -24 -126 -5 -44 -16 -103 -25
-130 -9 -26 -20 -82 -25 -123 -4 -41 -17 -111 -29 -154 -11 -44 -21 -100 -21
-126 0 -26 -7 -67 -16 -91 -8 -24 -18 -75 -21 -114 -3 -38 -14 -98 -24 -133
-10 -34 -21 -93 -25 -130 -3 -37 -15 -96 -25 -131 -10 -35 -19 -84 -19 -110 0
-27 -9 -74 -20 -107 -12 -32 -23 -88 -26 -124 -3 -36 -15 -91 -25 -124 -11
-32 -24 -93 -29 -135 -5 -42 -18 -107 -29 -146 -11 -38 -20 -88 -20 -110 -1
-23 -10 -67 -21 -98 -11 -32 -23 -86 -26 -120 -3 -34 -15 -86 -25 -115 -10
-29 -22 -78 -25 -110 -3 -31 -16 -89 -29 -128 -13 -39 -27 -95 -30 -125 -4
-30 -17 -85 -30 -124 -13 -38 -27 -99 -30 -135 -4 -36 -15 -92 -25 -125 -10
-34 -21 -88 -25 -120 -4 -33 -15 -84 -26 -113 -10 -29 -22 -78 -25 -110 -3
-31 -17 -88 -30 -127 -14 -38 -29 -99 -33 -135 -5 -36 -18 -90 -30 -120 -11
-30 -24 -84 -29 -120 -5 -36 -19 -91 -31 -122 -11 -31 -24 -83 -27 -115 -4
-32 -16 -78 -26 -102 -10 -24 -24 -76 -30 -115 -6 -39 -21 -98 -34 -131 -12
-33 -26 -85 -30 -115 -4 -30 -17 -82 -30 -115 -13 -33 -30 -95 -38 -137 -8
-42 -21 -89 -30 -105 -8 -16 -20 -58 -26 -93 -7 -36 -25 -99 -40 -140 -16 -41
-32 -97 -36 -125 -4 -27 -19 -81 -35 -120 -15 -38 -31 -92 -34 -120 -4 -27
-19 -77 -32 -109 -14 -33 -31 -90 -39 -126 -7 -37 -25 -92 -39 -123 -13 -31
-28 -76 -31 -100 -4 -23 -21 -78 -39 -122 -18 -44 -36 -100 -40 -125 -4 -25
-18 -67 -32 -93 -13 -27 -33 -81 -43 -120 -10 -40 -32 -101 -48 -137 -16 -36
-35 -89 -41 -118 -6 -29 -22 -75 -36 -102 -14 -28 -33 -78 -41 -112 -9 -34
-29 -87 -45 -118 -15 -31 -35 -83 -44 -115 -8 -33 -28 -87 -45 -120 -16 -33
-37 -88 -45 -122 -9 -34 -27 -81 -40 -105 -13 -24 -33 -78 -45 -120 -12 -43
-32 -97 -45 -121 -14 -24 -33 -78 -44 -121 -11 -42 -26 -87 -34 -99 -20 -31
-57 -134 -57 -159 0 -11 -16 -55 -35 -97 -19 -43 -39 -102 -45 -132 -6 -30
-22 -78 -36 -107 -14 -29 -32 -83 -40 -120 -9 -37 -24 -85 -35 -108 -27 -59
-49 -124 -49 -146 0 -11 -15 -55 -34 -97 -19 -42 -40 -98 -46 -125 -15 -70
-94 -230 -196 -397 -167 -276 -440 -706 -605 -954 -152 -230 -226 -337 -488
-713 -52 -74 -97 -130 -101 -125 -7 9 -150 244 -258 428 -35 61 -114 202 -174
315 -249 465 -288 527 -573 936 -284 406 -662 912 -1097 1466 -42 53 -118 157
-169 230 -149 215 -319 436 -533 698 -111 135 -242 295 -291 355 -137 169
-233 281 -439 510 -104 115 -294 332 -421 480 -128 149 -343 394 -480 545
-341 379 -775 886 -775 906 0 8 90 137 220 314 143 194 167 232 435 695 269
465 363 636 450 824 34 75 113 243 174 374 61 131 133 291 161 355 53 127 319
817 395 1027 121 332 236 738 334 1180 22 100 63 275 91 390 87 355 178 835
220 1155 37 287 112 1260 130 1685 6 138 18 408 28 600 31 630 19 2217 -23
3110 -40 836 -45 1001 -45 1405 0 478 11 872 35 1255 33 532 56 711 225 1735
34 206 47 259 103 425 114 336 170 473 349 855 223 474 264 549 389 700 233
283 295 355 386 446 166 165 452 364 624 433 121 48 467 99 849 125 100 6 143
6 266 -4z m-4155 -8137 c30 -1225 30 -1651 -1 -2233 -5 -102 -15 -315 -20
-475 -10 -291 -38 -738 -65 -1065 -8 -96 -22 -260 -30 -365 -34 -429 -110
-882 -238 -1420 -31 -126 -76 -322 -102 -435 -135 -586 -196 -783 -475 -1510
-173 -451 -221 -566 -391 -930 -204 -439 -266 -553 -672 -1246 -107 -183 -279
-438 -331 -492 -11 -11 -25 -5 -79 32 -261 183 -579 165 -786 -45 -88 -89
-136 -179 -232 -434 -41 -110 -128 -299 -246 -535 -290 -581 -526 -941 -956
-1455 -309 -368 -555 -621 -727 -746 -129 -94 -453 -290 -600 -364 -98 -49
-214 -95 -240 -95 -7 0 -10 486 -10 1531 l0 1531 113 106 c183 172 761 754
927 932 995 1071 1831 2183 2587 3445 131 219 129 216 283 490 200 358 287
523 479 910 134 270 251 512 251 520 0 2 17 41 39 87 21 45 49 106 61 133 12
28 35 78 51 113 16 35 29 65 29 67 0 3 11 28 24 57 13 29 36 82 51 118 15 36
35 83 45 105 10 22 32 76 50 120 18 44 38 94 45 110 7 17 56 140 108 275 172
445 225 590 352 975 148 447 229 710 325 1055 5 19 18 67 29 105 33 116 138
529 175 685 23 98 56 240 66 288 6 23 14 61 20 85 5 23 21 98 35 167 36 176
35 173 41 167 3 -3 10 -167 15 -364z"/>
<path d="M46425 47954 c-16 -2 -73 -9 -125 -15 -482 -54 -973 -242 -1370 -522
-231 -163 -522 -437 -694 -652 -708 -888 -980 -2054 -761 -3252 97 -526 306
-1067 606 -1565 181 -301 391 -592 493 -681 269 -238 563 -407 898 -516 51
-17 138 -46 193 -66 484 -175 1197 -204 1980 -79 490 78 774 162 1085 320 824
417 1316 1192 1459 2296 41 315 46 418 46 973 0 555 -6 696 -46 1025 -57 480
-171 895 -335 1222 -238 474 -654 842 -1243 1102 -436 191 -904 323 -1391 392
-109 15 -714 29 -795 18z m1839 -749 c167 -32 288 -92 358 -178 113 -141 147
-217 148 -332 0 -150 -53 -260 -177 -367 -36 -32 -100 -75 -142 -96 -69 -35
-112 -49 -253 -81 -61 -14 -225 -14 -302 0 -286 52 -358 82 -458 188 -53 55
-72 86 -99 153 -31 78 -33 91 -34 203 0 115 1 123 32 188 40 84 123 169 213
219 174 97 499 144 714 103z"/>
<path d="M31340 44440 c-593 -61 -1099 -256 -1554 -599 -686 -518 -1167 -1292
-1355 -2186 -82 -387 -109 -812 -76 -1182 37 -413 104 -736 231 -1104 163
-475 400 -920 737 -1384 124 -171 136 -185 245 -275 253 -213 517 -359 837
-466 72 -23 161 -55 200 -69 402 -152 1053 -196 1725 -114 463 55 817 134
1094 242 565 219 1022 614 1316 1136 188 334 336 814 394 1281 71 568 67 1494
-10 2060 -68 507 -210 964 -394 1274 -308 517 -819 880 -1605 1141 -351 117
-622 182 -945 226 -121 16 -220 21 -455 24 -165 2 -338 0 -385 -5z m1847
-1014 c204 -36 305 -96 416 -246 172 -231 111 -510 -151 -688 -155 -105 -425
-158 -626 -121 -184 33 -251 51 -318 82 -168 79 -275 249 -279 445 -2 104 7
145 49 225 41 79 120 157 207 204 177 93 484 137 702 99z"/>
<path d="M40649 36506 c-76 -27 -77 -27 -144 -77 -140 -105 -219 -315 -186
-494 26 -139 121 -269 235 -325 90 -43 253 -68 344 -52 226 38 385 213 399
437 7 96 -6 162 -46 247 -108 226 -376 344 -602 264z"/>
<path d="M26670 32006 c-57 -16 -119 -48 -160 -82 -75 -64 -96 -126 -179 -534
-131 -649 -213 -1252 -263 -1955 -18 -246 -18 -1337 0 -1575 64 -865 193
-1601 402 -2300 414 -1381 1096 -2562 2050 -3546 96 -99 188 -197 204 -218 16
-21 47 -50 70 -64 85 -55 131 -101 255 -252 150 -184 474 -513 658 -667 751
-632 1668 -1108 2928 -1523 1325 -436 2894 -724 4575 -842 298 -21 1433 -18
1725 5 1066 83 1978 258 3365 647 1054 296 1676 500 2270 748 999 416 1923
933 2700 1510 593 440 1219 1001 1771 1587 665 708 980 1321 996 1947 4 138 3
151 -21 218 -40 109 -106 194 -184 234 -15 8 -178 39 -362 70 -902 150 -1623
310 -3335 740 -445 112 -1258 313 -1805 446 -5588 1358 -6491 1594 -9180 2398
-1817 544 -2578 785 -3500 1109 -1196 420 -1856 694 -2925 1216 -773 377
-1097 508 -1515 616 -307 79 -437 95 -540 67z"/>
</g>
</svg>
