<?xml version="1.0" standalone="no"?>
<!DOCTYPE svg PUBLIC "-//W3C//DTD SVG 20010904//EN"
 "http://www.w3.org/TR/2001/REC-SVG-20010904/DTD/svg10.dtd">
<svg version="1.0" xmlns="http://www.w3.org/2000/svg"
 width="5802.000000pt" height="5802.000000pt" viewBox="0 0 5802.000000 5802.000000"
 preserveAspectRatio="xMidYMid meet">

<g transform="translate(0.000000,5802.000000) scale(0.100000,-0.100000)"
fill="#000000" stroke="none">
<path d="M27200 53000 c-30 -5 -127 -8 -215 -9 -88 -1 -257 -6 -375 -11 -832
-40 -927 -45 -1260 -70 -395 -30 -807 -66 -1025 -90 -49 -6 -193 -22 -320 -35
-126 -14 -261 -30 -300 -35 -38 -5 -108 -14 -155 -20 -197 -26 -566 -77 -645
-90 -116 -19 -251 -40 -345 -55 -99 -15 -263 -43 -415 -70 -84 -15 -111 -20
-247 -44 -118 -21 -736 -148 -858 -176 -14 -4 -43 -10 -65 -15 -212 -48 -308
-71 -550 -131 -294 -72 -466 -117 -575 -149 -36 -10 -101 -29 -145 -40 -143
-39 -321 -90 -500 -145 -66 -20 -145 -44 -175 -53 -82 -24 -736 -244 -880
-296 -279 -100 -312 -113 -520 -193 -65 -25 -91 -35 -132 -52 -13 -5 -142 -58
-288 -117 -146 -59 -287 -117 -315 -129 -27 -12 -86 -38 -130 -58 -235 -103
-350 -155 -494 -223 -62 -30 -115 -54 -118 -54 -2 0 -149 -72 -326 -160 -303
-150 -454 -228 -642 -330 -44 -24 -109 -59 -145 -78 -36 -19 -148 -82 -250
-140 -102 -58 -201 -114 -220 -125 -19 -10 -39 -23 -45 -27 -5 -4 -30 -19 -55
-32 -88 -49 -297 -177 -550 -337 -733 -462 -1504 -1021 -2099 -1520 -63 -53
-130 -109 -151 -126 -48 -40 -146 -124 -305 -265 -1351 -1192 -2622 -2647
-3649 -4180 -261 -388 -608 -940 -774 -1231 -11 -19 -36 -63 -57 -99 -21 -36
-49 -85 -63 -109 -14 -25 -38 -67 -53 -93 -16 -27 -29 -51 -29 -53 0 -2 -26
-50 -58 -107 -63 -110 -121 -218 -227 -418 -81 -153 -333 -659 -397 -795 -26
-55 -72 -153 -102 -219 -31 -65 -56 -119 -56 -121 0 -2 -15 -36 -34 -77 -49
-104 -147 -328 -191 -433 -20 -49 -45 -108 -55 -130 -50 -112 -276 -681 -345
-870 -152 -418 -279 -787 -383 -1120 -68 -216 -149 -487 -176 -585 -8 -30 -24
-86 -35 -125 -26 -94 -56 -204 -96 -360 -19 -71 -41 -157 -50 -190 -14 -55
-34 -137 -86 -360 -10 -44 -33 -143 -49 -220 -17 -77 -35 -158 -40 -180 -11
-46 -56 -266 -70 -340 -6 -27 -19 -95 -30 -150 -27 -137 -86 -479 -124 -720
-36 -227 -75 -522 -115 -865 -49 -416 -91 -918 -111 -1345 -6 -121 -13 -249
-16 -285 -12 -142 -16 -1247 -5 -1385 6 -77 15 -270 21 -430 36 -989 143
-1500 446 -2130 406 -844 1096 -1535 1884 -1885 286 -127 446 -178 710 -229
214 -41 356 -54 617 -54 l252 -1 5 -61 c3 -33 8 -168 11 -300 8 -352 34 -837
65 -1225 20 -252 60 -707 70 -785 5 -44 14 -123 20 -175 28 -257 57 -504 70
-585 5 -33 14 -96 19 -140 23 -176 70 -489 91 -615 5 -30 21 -127 35 -215 14
-88 30 -182 36 -210 5 -27 25 -138 45 -245 36 -199 116 -611 134 -687 14 -58
26 -114 45 -203 21 -100 29 -133 64 -280 17 -69 39 -165 50 -215 26 -113 123
-489 185 -715 8 -30 18 -66 22 -80 20 -74 146 -509 154 -530 5 -14 25 -79 45
-145 45 -149 229 -700 285 -855 52 -144 109 -299 120 -325 4 -11 43 -110 85
-220 82 -211 90 -232 124 -307 11 -26 21 -50 21 -53 0 -4 9 -25 19 -48 10 -23
35 -82 56 -132 20 -49 45 -108 55 -130 144 -324 154 -345 260 -570 89 -191
396 -797 420 -830 4 -5 29 -50 55 -100 27 -49 68 -123 92 -163 24 -41 43 -76
43 -78 0 -2 11 -21 24 -42 13 -20 63 -104 112 -187 506 -863 1145 -1725 1842
-2485 159 -173 704 -714 902 -896 983 -899 1954 -1619 3179 -2355 90 -55 165
-99 166 -99 2 0 64 -36 140 -80 76 -44 139 -80 141 -80 2 0 25 -13 52 -29 61
-36 130 -74 247 -136 50 -26 95 -51 100 -55 44 -32 1080 -550 1100 -550 3 0
57 -25 253 -116 41 -19 75 -34 77 -34 2 0 36 -15 77 -34 40 -18 145 -64 233
-101 88 -37 178 -75 200 -85 22 -10 76 -32 120 -50 44 -17 94 -37 110 -45 41
-19 429 -170 545 -212 52 -19 138 -51 190 -70 280 -103 679 -239 975 -331 88
-28 198 -62 245 -77 47 -15 99 -31 115 -35 17 -5 86 -25 155 -45 191 -56 316
-90 550 -153 208 -56 605 -154 780 -192 52 -11 115 -25 140 -31 25 -6 63 -14
85 -19 22 -5 90 -20 150 -34 61 -13 126 -27 145 -31 19 -4 51 -11 70 -15 268
-60 415 -91 685 -145 359 -72 610 -117 945 -169 91 -15 192 -31 225 -36 90
-15 319 -48 410 -59 44 -6 116 -15 160 -21 151 -20 443 -54 605 -70 52 -5 140
-14 195 -20 368 -40 1016 -84 1655 -112 325 -15 1590 -15 1905 0 810 37 1260
69 1910 137 312 32 925 110 1140 145 33 5 103 16 155 24 231 37 479 77 520 86
25 5 88 16 140 25 93 16 145 26 245 46 28 5 140 27 250 49 344 68 694 145 982
215 78 19 177 43 220 54 81 20 346 88 443 115 30 8 91 24 135 36 128 34 587
167 745 216 189 58 896 291 980 322 92 34 154 56 240 87 308 110 1044 399
1235 485 22 10 69 30 105 45 36 15 83 35 105 45 22 10 101 45 175 78 74 33
176 79 225 102 50 23 140 65 200 92 219 100 979 482 1150 577 28 16 82 45 120
66 39 21 104 57 145 80 41 23 98 54 125 70 28 15 95 53 150 85 55 32 116 67
135 77 80 46 314 185 440 263 74 46 182 112 240 148 321 198 859 563 1275 866
531 387 1198 928 1650 1336 398 361 988 939 1295 1270 1001 1079 1831 2183
2587 3445 131 219 129 216 283 490 200 358 287 523 479 910 134 270 251 512
251 520 0 2 17 41 39 87 21 45 49 106 61 133 12 28 35 78 51 113 16 35 29 65
29 67 0 3 11 28 24 57 13 29 36 82 51 118 15 36 35 83 45 105 10 22 32 76 50
120 18 44 38 94 45 110 7 17 56 140 108 275 172 445 225 590 352 975 148 447
229 710 325 1055 5 19 18 67 29 105 49 174 154 591 217 865 45 196 51 222 79
360 14 69 30 143 35 165 32 139 85 429 139 755 55 327 78 481 101 655 5 39 14
106 20 150 20 147 53 437 80 695 35 348 63 741 91 1305 16 312 16 1506 0 1820
-29 586 -49 879 -91 1305 -40 408 -58 559 -121 1000 -55 389 -72 497 -128 805
-11 61 -27 151 -36 200 -18 102 -54 282 -91 460 -24 118 -32 154 -53 245 -6
25 -18 79 -27 120 -17 80 -74 316 -122 515 -26 105 -51 200 -106 405 -8 30
-24 91 -36 135 -25 97 -59 211 -72 247 -11 30 -4 48 18 48 21 0 316 101 394
136 854 373 1507 1088 1863 2044 64 171 134 416 171 600 54 267 65 345 106
775 13 139 13 729 0 883 -5 65 -17 203 -25 307 -21 256 -80 726 -115 925 -5
30 -14 87 -21 125 -19 121 -71 393 -89 470 -5 22 -21 92 -36 155 -163 705
-402 1400 -729 2115 -72 159 -318 658 -335 680 -4 6 -29 51 -55 100 -227 427
-549 949 -880 1425 -227 327 -578 792 -849 1125 -224 275 -603 713 -777 900
-31 33 -101 110 -156 170 -92 101 -202 210 -344 340 -464 429 -514 477 -684
676 -114 133 -257 291 -315 349 -220 222 -1134 948 -1639 1304 -79 55 -171
120 -205 144 -323 228 -980 645 -1296 824 -211 120 -329 185 -465 258 -44 24
-105 57 -135 73 -121 67 -830 417 -845 417 -1 0 -51 23 -109 50 -58 28 -108
50 -110 50 -2 0 -37 15 -78 34 -40 19 -113 51 -163 71 -49 21 -109 46 -132 56
-23 10 -44 19 -48 19 -3 0 -27 9 -53 21 -26 12 -56 25 -67 30 -33 14 -396 156
-460 179 -420 152 -787 271 -1150 374 -360 101 -790 208 -1095 271 -69 14
-143 30 -165 35 -44 11 -229 47 -405 80 -63 12 -135 25 -160 30 -25 5 -171 30
-325 55 -154 25 -307 50 -340 55 -66 11 -483 70 -665 94 -63 8 -182 24 -265
36 -82 11 -186 25 -230 30 -44 6 -109 15 -145 21 -36 5 -137 18 -225 29 -88
12 -191 25 -230 30 -38 5 -142 19 -230 30 -198 26 -367 48 -465 61 -110 14
-613 78 -700 89 -41 5 -172 21 -290 35 -118 14 -251 30 -295 36 -44 5 -118 14
-165 19 -77 10 -421 49 -560 65 -30 3 -89 10 -130 15 -103 13 -225 26 -500 55
-129 13 -275 29 -325 34 -169 19 -280 30 -445 46 -160 15 -246 23 -455 45 -87
9 -306 28 -805 70 -69 6 -174 15 -235 20 -125 11 -459 36 -960 70 -606 42
-1236 72 -2100 102 -374 13 -2184 19 -2265 8z m5235 -4751 c365 -15 699 -34
1030 -58 325 -25 417 -32 520 -41 61 -6 158 -15 218 -20 251 -23 663 -63 822
-80 55 -6 138 -15 185 -20 232 -25 563 -64 750 -89 114 -15 427 -60 495 -70
33 -5 92 -14 130 -20 68 -10 438 -72 540 -91 28 -5 102 -18 165 -30 63 -11
149 -28 190 -37 41 -8 93 -19 115 -24 518 -107 992 -227 1440 -364 142 -43
512 -165 605 -200 36 -13 128 -47 205 -75 77 -29 154 -58 170 -65 17 -8 91
-38 166 -69 75 -30 156 -63 180 -74 24 -11 82 -36 129 -57 379 -165 956 -463
1301 -673 446 -271 1293 -818 1734 -1121 499 -342 918 -650 1276 -938 95 -76
186 -149 203 -163 292 -233 802 -697 1102 -1002 909 -923 1644 -1963 2469
-3493 136 -252 585 -1144 718 -1425 19 -41 67 -142 107 -225 40 -82 98 -206
130 -275 32 -69 79 -170 105 -225 26 -55 60 -127 75 -160 15 -33 49 -104 74
-158 25 -55 46 -100 46 -102 0 -1 27 -58 59 -126 32 -68 79 -169 104 -224 25
-55 59 -131 77 -170 45 -97 240 -545 240 -550 0 -2 11 -28 24 -57 13 -29 54
-127 91 -218 67 -167 71 -177 98 -240 18 -42 151 -386 200 -520 79 -211 141
-380 174 -475 66 -190 262 -780 293 -885 17 -58 47 -157 67 -220 19 -63 39
-131 44 -150 6 -19 14 -48 19 -65 51 -178 96 -336 115 -410 13 -49 31 -117 40
-150 55 -204 165 -654 205 -835 146 -664 249 -1223 326 -1765 7 -55 18 -129
24 -165 23 -150 82 -669 110 -965 36 -388 67 -892 80 -1335 10 -327 4 -1251
-10 -1495 -47 -858 -77 -1187 -170 -1900 -19 -148 -78 -536 -99 -650 -66 -363
-84 -458 -112 -600 -17 -82 -59 -278 -94 -435 -78 -348 -148 -623 -255 -1015
-4 -16 -25 -86 -45 -155 -20 -69 -40 -138 -45 -155 -63 -225 -253 -805 -340
-1040 -10 -27 -30 -84 -45 -125 -25 -69 -92 -248 -167 -445 -29 -75 -48 -122
-69 -170 -4 -11 -22 -56 -40 -100 -17 -44 -37 -93 -44 -110 -8 -16 -48 -111
-90 -210 -42 -99 -87 -202 -100 -230 -12 -27 -37 -84 -55 -125 -18 -41 -59
-131 -91 -199 -33 -68 -59 -125 -59 -127 0 -8 -330 -671 -385 -774 -31 -58
-79 -148 -107 -200 -28 -52 -67 -124 -88 -160 -20 -36 -50 -90 -67 -120 -143
-264 -439 -755 -672 -1115 -618 -953 -1379 -1927 -2111 -2700 -935 -989 -1854
-1788 -3003 -2609 -396 -284 -1143 -768 -1497 -971 -30 -18 -106 -62 -168 -98
-62 -37 -132 -78 -155 -91 -23 -13 -58 -32 -77 -43 -19 -11 -55 -31 -80 -45
-25 -14 -61 -34 -80 -45 -55 -31 -323 -175 -460 -248 -151 -79 -735 -372 -875
-437 -55 -26 -148 -69 -206 -96 -58 -27 -204 -93 -325 -147 -120 -53 -232
-102 -249 -110 -16 -7 -59 -25 -95 -40 -36 -15 -83 -35 -105 -45 -22 -10 -125
-53 -230 -95 -104 -42 -199 -80 -210 -85 -151 -62 -578 -224 -845 -320 -157
-56 -858 -290 -1005 -335 -66 -20 -138 -43 -160 -50 -22 -7 -206 -60 -410
-118 -498 -142 -830 -227 -1350 -347 -22 -5 -94 -21 -160 -35 -66 -14 -138
-30 -160 -36 -40 -9 -410 -84 -495 -100 -25 -4 -108 -20 -185 -34 -473 -88
-934 -159 -1457 -225 -43 -6 -113 -14 -155 -20 -84 -11 -377 -42 -660 -70
-326 -32 -807 -63 -1393 -92 -321 -15 -1583 -15 -1900 0 -579 28 -1030 58
-1390 92 -264 26 -709 75 -892 100 -43 5 -111 14 -150 20 -126 16 -361 50
-423 60 -33 5 -132 21 -220 35 -88 13 -185 29 -215 35 -30 5 -145 26 -255 46
-200 36 -614 116 -690 134 -22 5 -116 26 -210 46 -93 20 -195 43 -225 51 -30
8 -131 31 -225 50 -93 19 -186 39 -205 43 -143 31 -346 80 -630 150 -112 28
-306 78 -385 101 -104 29 -130 36 -245 68 -58 16 -172 50 -255 74 -82 25 -197
60 -255 77 -58 17 -143 44 -190 60 -47 15 -141 46 -210 68 -69 22 -215 72
-325 110 -204 71 -235 82 -410 147 -55 20 -140 52 -190 70 -175 65 -644 253
-759 305 -23 10 -81 34 -131 55 -49 20 -110 46 -135 57 -25 11 -70 32 -100 45
-30 14 -83 38 -118 54 -35 16 -65 29 -67 29 -2 0 -52 23 -112 51 -59 28 -124
58 -143 66 -73 33 -741 365 -855 426 -127 67 -250 133 -325 175 -25 14 -70 38
-100 55 -99 54 -252 142 -395 227 -77 45 -153 90 -170 100 -219 126 -769 480
-1045 672 -186 128 -227 158 -386 273 -456 328 -1069 823 -1414 1140 -30 27
-86 79 -125 115 -244 224 -727 719 -971 995 -581 657 -1133 1415 -1606 2205
-80 135 -179 305 -223 385 -15 28 -51 93 -80 145 -119 213 -410 787 -498 980
-8 19 -31 69 -50 110 -19 41 -44 98 -57 125 -12 28 -35 78 -51 113 -16 35 -29
65 -29 67 0 3 -11 29 -25 59 -27 59 -163 389 -238 576 -125 313 -311 832 -414
1155 -46 146 -123 393 -133 430 -5 17 -40 138 -79 270 -88 305 -248 915 -280
1070 -5 22 -25 112 -45 200 -21 88 -41 180 -46 205 -5 25 -18 86 -29 135 -88
408 -155 775 -256 1400 -15 90 -58 389 -75 520 -32 245 -58 459 -80 663 -5 50
-15 134 -20 185 -12 109 -54 600 -69 812 -48 673 -56 931 -56 1850 0 915 8
1176 55 1845 22 302 72 852 99 1075 6 44 17 139 25 210 15 123 25 202 47 358
5 37 13 97 18 135 29 210 93 611 136 847 17 92 28 155 44 248 29 161 133 663
166 802 8 33 28 121 44 195 28 124 159 648 195 780 8 30 22 81 31 114 36 134
66 243 74 266 5 14 18 57 29 95 11 39 28 97 37 130 44 153 187 601 247 775 27
80 58 170 68 200 103 317 468 1251 600 1537 11 24 20 45 20 47 0 3 13 33 29
68 16 35 39 86 51 113 134 298 196 430 374 785 129 257 180 357 266 515 15 28
46 86 70 130 56 104 305 541 383 670 1001 1670 2191 3113 3607 4376 861 767
1936 1554 2980 2181 216 130 644 377 780 450 84 45 204 110 360 193 143 76
705 357 855 427 55 26 148 69 206 96 58 27 204 93 325 147 120 53 233 102 249
110 17 7 59 25 95 40 36 15 83 35 105 45 193 87 1057 425 1225 480 14 4 70 24
125 45 55 20 145 51 200 70 55 18 165 56 245 83 207 71 495 164 765 247 66 20
147 45 180 55 79 24 671 190 805 225 58 15 134 35 170 45 150 42 683 170 980
235 53 12 502 103 600 122 14 3 115 23 225 45 110 22 223 43 250 48 28 5 136
25 240 45 105 20 213 40 240 45 201 37 348 63 395 70 30 5 82 14 115 20 238
41 715 113 1005 150 47 6 117 15 155 20 317 41 798 85 1206 111 450 28 1342
32 1914 8z"/>
<path d="M41045 43624 c-16 -2 -73 -9 -125 -15 -482 -54 -973 -242 -1370 -522
-231 -163 -522 -437 -694 -652 -708 -888 -980 -2054 -761 -3252 97 -526 306
-1067 606 -1565 181 -301 391 -592 493 -681 269 -238 563 -407 898 -516 51
-17 138 -46 193 -66 484 -175 1197 -204 1980 -79 490 78 774 162 1085 320 824
417 1316 1192 1459 2296 41 315 46 418 46 973 0 555 -6 696 -46 1025 -57 480
-171 895 -335 1222 -238 474 -654 842 -1243 1102 -436 191 -904 323 -1391 392
-109 15 -714 29 -795 18z m1839 -749 c167 -32 288 -92 358 -178 113 -141 147
-217 148 -332 0 -150 -53 -260 -177 -367 -36 -32 -100 -75 -142 -96 -69 -35
-112 -49 -253 -81 -61 -14 -225 -14 -302 0 -286 52 -358 82 -458 188 -53 55
-72 86 -99 153 -31 78 -33 91 -34 203 0 115 1 123 32 188 40 84 123 169 213
219 174 97 499 144 714 103z"/>
<path d="M25960 40110 c-593 -61 -1099 -256 -1554 -599 -686 -518 -1167 -1292
-1355 -2186 -82 -387 -109 -812 -76 -1182 37 -413 104 -736 231 -1104 163
-475 400 -920 737 -1384 124 -171 136 -185 245 -275 253 -213 517 -359 837
-466 72 -23 161 -55 200 -69 402 -152 1053 -196 1725 -114 463 55 817 134
1094 242 565 219 1022 614 1316 1136 188 334 336 814 394 1281 71 568 67 1494
-10 2060 -68 507 -210 964 -394 1274 -308 517 -819 880 -1605 1141 -351 117
-622 182 -945 226 -121 16 -220 21 -455 24 -165 2 -338 0 -385 -5z m1847
-1014 c204 -36 305 -96 416 -246 172 -231 111 -510 -151 -688 -155 -105 -425
-158 -626 -121 -184 33 -251 51 -318 82 -168 79 -275 249 -279 445 -2 104 7
145 49 225 41 79 120 157 207 204 177 93 484 137 702 99z"/>
<path d="M35269 32176 c-76 -27 -77 -27 -144 -77 -140 -105 -219 -315 -186
-494 26 -139 121 -269 235 -325 90 -43 253 -68 344 -52 226 38 385 213 399
437 7 96 -6 162 -46 247 -108 226 -376 344 -602 264z"/>
<path d="M21290 27676 c-57 -16 -119 -48 -160 -82 -75 -64 -96 -126 -179 -534
-131 -649 -213 -1252 -263 -1955 -18 -246 -18 -1337 0 -1575 64 -865 193
-1601 402 -2300 414 -1381 1096 -2562 2050 -3546 96 -99 188 -197 204 -218 16
-21 47 -50 70 -64 85 -55 131 -101 255 -252 150 -184 474 -513 658 -667 751
-632 1668 -1108 2928 -1523 1325 -436 2894 -724 4575 -842 298 -21 1433 -18
1725 5 1066 83 1978 258 3365 647 1054 296 1676 500 2270 748 999 416 1923
933 2700 1510 593 440 1219 1001 1771 1587 665 708 980 1321 996 1947 4 138 3
151 -21 218 -40 109 -106 194 -184 234 -15 8 -178 39 -362 70 -902 150 -1623
310 -3335 740 -445 112 -1258 313 -1805 446 -5588 1358 -6491 1594 -9180 2398
-1817 544 -2578 785 -3500 1109 -1196 420 -1856 694 -2925 1216 -773 377
-1097 508 -1515 616 -307 79 -437 95 -540 67z"/>
</g>
</svg>
