<?xml version="1.0" standalone="no"?>
<!DOCTYPE svg PUBLIC "-//W3C//DTD SVG 20010904//EN"
 "http://www.w3.org/TR/2001/REC-SVG-20010904/DTD/svg10.dtd">
<svg version="1.0" xmlns="http://www.w3.org/2000/svg"
 width="5802.000000pt" height="6149.000000pt" viewBox="0 0 5802.000000 6149.000000"
 preserveAspectRatio="xMidYMid meet">

<g transform="translate(0.000000,6149.000000) scale(0.100000,-0.100000)"
fill="#000000" stroke="none">
<path d="M26940 56859 c-74 -4 -277 -13 -450 -19 -1068 -37 -2181 -135 -3195
-281 -325 -47 -326 -47 -580 -90 -618 -103 -1037 -186 -1550 -305 -33 -8 -80
-18 -105 -23 -49 -11 -579 -144 -730 -185 -415 -110 -1173 -345 -1522 -472
-38 -13 -98 -35 -135 -48 -120 -43 -347 -128 -378 -141 -16 -7 -97 -38 -180
-70 -215 -82 -646 -262 -860 -360 -27 -12 -72 -32 -100 -45 -27 -12 -92 -42
-144 -66 -51 -24 -95 -44 -98 -44 -24 0 -935 -465 -1151 -588 -41 -23 -76 -42
-78 -42 -2 0 -25 -13 -51 -28 -27 -16 -113 -66 -193 -112 -1181 -680 -2312
-1509 -3300 -2419 -436 -402 -965 -941 -1371 -1396 -979 -1098 -1878 -2360
-2601 -3650 -91 -162 -125 -224 -225 -409 -102 -189 -444 -883 -541 -1096 -54
-120 -74 -165 -103 -227 -16 -34 -40 -91 -55 -125 -14 -35 -36 -85 -49 -113
-181 -401 -553 -1389 -700 -1865 -13 -41 -47 -149 -75 -240 -57 -180 -71 -229
-153 -520 -94 -331 -170 -628 -243 -945 -35 -155 -120 -557 -144 -685 -17 -91
-38 -196 -45 -235 -54 -271 -150 -924 -195 -1320 -5 -49 -14 -130 -20 -180
-29 -256 -65 -733 -79 -1050 -6 -132 -16 -290 -21 -351 -13 -145 -13 -1034 0
-1189 5 -66 14 -250 20 -410 19 -516 48 -792 116 -1120 42 -198 110 -413 201
-635 436 -1054 1303 -1852 2303 -2121 243 -65 576 -101 895 -96 l100 2 7 -235
c9 -298 35 -845 48 -1015 54 -692 77 -934 140 -1455 16 -129 78 -580 99 -715
34 -217 43 -275 65 -405 49 -285 67 -386 86 -480 10 -52 23 -120 29 -150 11
-59 100 -490 126 -605 9 -38 20 -88 24 -110 28 -134 169 -696 240 -960 46
-169 201 -701 221 -755 5 -14 40 -122 79 -240 110 -339 238 -699 346 -975 54
-138 54 -141 37 -137 -56 11 -657 18 -1025 11 -900 -16 -1256 -41 -1877 -129
-407 -57 -404 -57 -820 -105 -436 -51 -742 -94 -928 -130 -70 -13 -246 -45
-392 -70 -296 -51 -573 -115 -728 -170 -680 -237 -1214 -694 -1447 -1237 -144
-336 -164 -634 -95 -1413 36 -401 85 -740 160 -1115 114 -568 220 -869 685
-1945 196 -454 267 -601 407 -845 189 -329 374 -609 758 -1145 295 -412 377
-535 740 -1120 318 -510 345 -552 493 -759 314 -439 654 -842 1309 -1553 151
-164 379 -415 508 -558 376 -418 615 -650 1135 -1105 154 -134 379 -335 500
-445 1094 -997 1084 -988 1365 -1216 217 -177 452 -352 680 -509 107 -73 267
-183 355 -243 88 -61 400 -295 693 -521 611 -470 731 -559 1036 -765 598 -402
1286 -803 1676 -976 91 -40 479 -223 835 -393 491 -233 817 -376 1425 -622
756 -306 1244 -515 1545 -660 77 -37 163 -75 190 -83 28 -9 88 -28 135 -42 46
-15 97 -36 113 -47 16 -11 61 -33 100 -48 40 -14 90 -39 111 -53 21 -15 67
-36 102 -46 34 -11 86 -33 116 -50 29 -16 78 -36 108 -44 30 -8 82 -28 115
-45 33 -17 83 -36 110 -43 28 -7 75 -25 106 -40 30 -16 82 -35 115 -42 32 -8
77 -23 100 -35 22 -11 74 -30 115 -40 41 -11 105 -32 142 -46 37 -14 79 -26
93 -26 13 0 52 -12 86 -26 34 -14 91 -32 127 -39 36 -8 98 -25 136 -39 39 -14
81 -26 95 -26 14 0 63 -14 110 -30 47 -16 97 -30 111 -30 15 0 56 -11 92 -25
36 -13 89 -27 118 -31 30 -4 86 -17 126 -30 39 -13 85 -24 102 -24 17 0 57 -9
90 -20 32 -11 98 -27 147 -35 49 -8 114 -21 144 -30 30 -8 77 -15 105 -15 27
0 72 -7 99 -15 27 -8 77 -15 110 -15 34 0 86 -7 116 -15 30 -8 87 -15 125 -15
39 0 86 -5 105 -10 20 -5 74 -12 120 -14 47 -3 101 -9 120 -15 19 -6 64 -11
100 -11 36 0 81 -5 100 -10 34 -10 158 -24 350 -40 52 -4 122 -13 154 -20 33
-6 74 -10 90 -7 17 3 64 -2 105 -9 41 -8 102 -14 135 -13 34 0 113 -4 176 -9
193 -18 421 -35 495 -37 39 -1 140 -8 225 -15 85 -7 187 -14 225 -15 39 -2
196 -10 350 -19 154 -8 359 -18 455 -22 605 -22 1801 -35 3450 -36 868 0 975
2 1340 34 63 5 147 11 185 12 39 2 140 8 225 15 85 6 193 13 240 15 47 1 148
8 225 15 77 6 181 13 230 15 50 2 146 9 215 15 69 6 177 15 240 20 63 4 128
14 143 20 16 6 54 11 86 11 31 0 81 6 111 14 30 8 84 17 120 21 36 3 88 12
115 20 28 7 79 16 115 20 36 4 92 16 125 26 33 10 79 19 102 19 22 0 70 9 105
20 34 11 84 20 109 20 26 0 75 9 110 19 35 10 91 22 124 25 33 3 89 15 123 26
35 11 80 20 100 20 21 0 69 9 107 20 38 11 88 20 111 20 22 0 63 7 90 15 27 8
74 15 104 15 30 0 80 7 110 15 30 8 82 15 116 15 33 0 83 7 110 15 27 8 74 15
104 15 31 0 80 7 110 15 30 9 94 20 142 25 48 5 104 16 125 25 20 9 64 19 98
22 33 3 91 17 129 30 38 12 85 23 104 23 18 0 66 11 105 24 40 14 95 28 122
32 28 3 78 17 112 30 34 12 83 26 110 29 26 4 75 18 108 31 33 12 92 30 131
38 40 8 91 24 114 36 23 12 76 30 117 41 42 10 97 31 122 45 25 14 73 34 106
45 33 10 87 35 120 54 33 20 86 47 117 60 31 13 77 37 101 54 25 17 69 40 98
52 30 11 75 36 101 55 26 18 77 47 113 63 36 17 78 39 92 51 15 11 63 39 107
61 45 22 97 48 116 59 19 11 60 31 90 44 30 14 75 37 100 50 71 38 231 113
280 131 25 9 63 27 85 39 22 13 51 27 65 31 14 3 63 24 110 45 93 43 203 87
320 130 41 15 98 37 125 48 28 11 72 26 98 33 26 6 76 29 110 49 34 21 134 67
222 103 369 150 762 325 1170 519 356 170 744 353 835 393 390 173 1078 574
1676 976 305 206 425 295 1036 765 293 226 605 460 693 521 88 60 248 170 355
243 228 157 463 332 680 509 281 228 271 219 1365 1216 121 110 346 311 500
445 520 455 759 687 1135 1105 129 143 357 394 508 558 655 711 995 1114 1309
1553 148 207 175 249 493 759 363 585 445 708 740 1120 384 536 569 816 758
1145 140 244 211 391 407 845 465 1076 571 1377 685 1945 158 785 241 1801
176 2148 -26 139 -65 272 -111 380 -233 543 -767 1000 -1447 1237 -145 51
-429 119 -668 160 -111 19 -205 36 -207 39 -2 2 3 34 12 70 8 37 15 79 15 94
0 15 9 68 20 117 10 50 24 137 30 195 6 58 17 137 26 175 8 39 14 88 14 110 0
43 20 158 51 291 10 45 21 115 25 155 6 79 33 226 65 351 10 42 19 91 19 109
0 42 19 139 81 409 27 118 48 231 47 251 0 19 6 66 15 105 9 38 36 157 61 264
64 279 140 591 186 770 22 85 44 184 50 220 5 36 20 99 34 140 14 41 41 138
61 215 19 77 47 181 61 230 15 50 46 176 71 280 25 105 53 208 63 230 9 22 25
67 34 100 10 33 23 74 31 91 7 16 27 84 45 149 17 66 37 131 45 145 20 38 75
178 75 191 0 6 9 23 19 38 10 14 29 64 42 111 12 47 28 92 35 100 7 8 25 40
41 70 16 30 34 64 40 75 6 11 20 40 31 65 32 72 73 126 127 166 28 21 52 41
55 44 9 11 255 130 269 130 7 0 25 9 40 19 14 10 46 24 71 31 53 13 143 55
186 86 16 12 52 33 80 46 79 40 122 66 203 125 42 31 78 59 81 62 3 4 21 19
40 34 128 103 328 299 402 394 29 38 58 74 65 81 21 22 133 180 133 188 0 4 6
15 14 23 16 18 52 80 73 126 15 31 22 45 54 102 10 18 19 38 19 44 0 6 10 25
23 42 25 34 50 108 92 272 14 55 39 141 55 191 41 127 100 378 100 426 0 22 7
66 15 98 8 32 15 73 14 92 0 18 3 94 7 168 16 284 7 877 -17 1045 -42 302
-175 956 -208 1030 -5 11 -19 54 -31 95 -40 137 -100 307 -124 352 -13 23 -27
58 -31 77 -4 19 -26 64 -50 100 -23 36 -46 77 -50 91 -7 24 -178 272 -208 301
-7 8 -40 45 -72 84 -33 38 -77 86 -98 105 -51 47 -271 204 -327 233 -25 13
-54 29 -65 35 -28 15 -172 55 -350 96 -163 37 -247 43 -380 24 -84 -11 -475
-101 -510 -117 -69 -31 -94 -41 -102 -41 -13 0 -145 -69 -164 -85 -8 -8 -19
-15 -22 -15 -19 0 -324 -215 -367 -259 -14 -14 -57 -53 -94 -86 -83 -73 -248
-237 -336 -335 -36 -40 -76 -84 -89 -98 -14 -13 -53 -61 -89 -106 -35 -44 -71
-90 -80 -101 -9 -11 -33 -40 -52 -65 -19 -25 -37 -47 -41 -50 -15 -11 -229
-313 -229 -322 0 -6 -16 -32 -35 -58 -19 -26 -35 -51 -35 -55 0 -4 -25 -47
-55 -95 -30 -48 -55 -92 -55 -98 0 -6 -20 -43 -45 -81 -25 -38 -45 -73 -45
-78 0 -4 -16 -34 -35 -66 -19 -32 -35 -63 -35 -68 0 -6 -9 -23 -19 -38 -10
-14 -24 -46 -31 -71 -6 -25 -24 -63 -39 -85 -15 -22 -31 -53 -35 -70 -4 -16
-24 -66 -46 -110 -25 -53 -52 -137 -79 -250 -23 -93 -48 -186 -56 -205 -8 -19
-24 -70 -37 -114 l-23 -78 -1 563 c-2 717 -35 1394 -94 1954 -6 50 -17 160
-26 245 -111 1087 -355 2352 -665 3449 -54 193 -54 191 -36 191 16 0 207 62
277 89 112 45 138 57 265 121 465 237 837 568 1156 1030 262 378 461 860 559
1355 40 198 56 304 82 540 18 164 18 971 0 1150 -7 72 -20 195 -28 275 -8 80
-19 179 -24 220 -76 578 -132 887 -240 1314 -145 581 -335 1129 -577 1671 -25
55 -52 116 -60 135 -35 78 -276 561 -324 650 -580 1073 -1262 2026 -2229 3115
-253 285 -405 441 -620 638 -287 264 -451 429 -666 674 -207 235 -286 311
-579 554 -689 571 -1344 1048 -2030 1476 -226 141 -506 308 -640 383 -33 18
-73 41 -90 50 -96 54 -232 127 -355 193 -113 60 -505 255 -605 302 -44 21
-118 55 -165 77 -47 22 -141 65 -210 95 -69 30 -138 61 -155 68 -79 36 -263
113 -285 120 -14 4 -47 18 -75 30 -50 22 -319 126 -530 204 -225 83 -818 270
-1050 331 -474 125 -721 183 -1175 276 -216 44 -756 138 -995 174 -38 5 -113
17 -165 24 -121 19 -161 24 -475 66 -38 5 -122 16 -185 25 -63 9 -146 20 -185
25 -38 5 -122 16 -185 25 -196 27 -261 35 -375 50 -60 8 -162 21 -225 29 -63
8 -205 27 -315 41 -110 14 -234 30 -275 36 -207 27 -570 72 -875 108 -187 23
-374 46 -415 51 -41 5 -138 17 -215 25 -77 9 -176 20 -220 25 -167 20 -358 41
-585 65 -129 14 -275 29 -325 35 -49 5 -160 16 -245 25 -85 8 -198 20 -250 25
-52 5 -169 17 -260 25 -91 8 -210 19 -265 25 -92 9 -279 25 -575 50 -63 5
-203 17 -310 25 -107 8 -251 20 -320 25 -119 9 -248 18 -590 40 -475 31 -1004
56 -1445 70 -187 6 -428 15 -535 20 -225 12 -1839 11 -2040 -1z m5035 -4389
c252 -11 671 -36 850 -50 270 -20 514 -40 620 -50 61 -5 184 -17 275 -25 91
-8 208 -19 260 -25 52 -5 142 -14 200 -20 58 -5 143 -14 190 -20 47 -5 128
-14 180 -20 581 -63 1162 -146 1715 -245 101 -18 496 -97 595 -119 36 -8 99
-21 140 -30 182 -40 813 -205 900 -235 14 -5 72 -24 130 -41 355 -108 898
-304 1107 -400 24 -11 45 -20 47 -20 2 0 69 -29 148 -64 696 -310 1125 -552
2113 -1194 1850 -1201 2954 -2142 3876 -3302 464 -584 992 -1402 1431 -2220
19 -36 56 -103 81 -150 138 -257 480 -935 620 -1230 30 -63 101 -212 157 -330
56 -118 118 -248 137 -289 19 -41 64 -137 100 -215 36 -78 90 -192 119 -255
30 -62 54 -115 54 -116 0 -2 27 -60 60 -130 33 -70 60 -128 60 -130 0 -3 21
-48 46 -102 25 -54 57 -125 71 -158 14 -33 33 -78 43 -100 17 -37 60 -136 160
-370 123 -287 349 -874 498 -1291 81 -228 275 -821 337 -1034 141 -477 264
-940 365 -1375 23 -99 48 -207 55 -240 12 -50 47 -224 145 -720 13 -67 84
-493 104 -630 9 -60 21 -137 26 -170 9 -59 16 -112 44 -335 31 -237 43 -347
76 -680 17 -183 37 -454 60 -850 17 -295 24 -1242 11 -1605 -23 -647 -65
-1156 -151 -1845 -25 -202 -81 -563 -120 -780 -5 -30 -17 -93 -25 -140 -8 -47
-20 -107 -25 -135 -5 -27 -17 -86 -25 -130 -9 -44 -20 -98 -25 -120 -5 -22
-26 -116 -45 -210 -170 -801 -425 -1672 -737 -2520 -40 -108 -53 -144 -162
-420 -53 -136 -199 -489 -236 -570 -10 -22 -49 -110 -88 -195 -300 -668 -653
-1342 -1030 -1970 -154 -257 -132 -234 -216 -227 -94 8 -416 -11 -487 -29 -31
-8 -73 -14 -93 -14 -20 0 -52 -6 -70 -14 -18 -7 -53 -17 -77 -21 -24 -4 -75
-19 -114 -34 -38 -16 -82 -31 -98 -35 -15 -3 -49 -19 -75 -35 -26 -16 -59 -31
-73 -34 -14 -4 -41 -18 -60 -31 -19 -14 -60 -39 -91 -56 -63 -33 -131 -86
-217 -170 -92 -88 -83 -85 -140 -56 -28 14 -56 26 -63 26 -7 0 -40 14 -73 30
-33 17 -71 30 -85 30 -14 1 -43 8 -65 16 -22 8 -76 21 -120 29 -44 7 -114 21
-155 29 -186 39 -220 45 -300 54 -208 24 -687 -7 -796 -53 -20 -8 -48 -15 -61
-15 -14 0 -57 -13 -96 -29 -40 -15 -86 -32 -104 -35 -18 -4 -49 -19 -70 -33
-21 -14 -52 -30 -69 -35 -18 -4 -49 -20 -70 -35 -22 -14 -66 -42 -99 -60 -32
-19 -79 -51 -102 -71 -96 -82 -219 -199 -243 -230 -14 -18 -44 -56 -67 -83
-24 -27 -52 -68 -64 -90 -11 -23 -33 -59 -48 -80 -15 -20 -38 -65 -50 -99 -21
-57 -26 -62 -74 -84 -29 -12 -67 -26 -86 -29 -34 -7 -74 -24 -218 -94 -72 -35
-74 -35 -190 -32 -136 3 -280 -11 -338 -34 -22 -8 -58 -18 -80 -22 -21 -4 -52
-13 -67 -21 -26 -13 -32 -12 -85 18 -32 17 -71 42 -88 54 -16 12 -50 30 -75
40 -25 9 -56 25 -70 34 -52 35 -305 116 -410 130 -30 4 -73 12 -95 18 -55 15
-221 17 -335 3 -201 -23 -240 -31 -410 -87 -72 -23 -80 -23 -190 -13 -227 22
-444 15 -555 -20 -127 -39 -159 -43 -201 -27 -21 8 -61 20 -89 25 -53 11 -178
42 -260 66 -148 42 -361 65 -565 60 -284 -6 -466 -35 -645 -102 -22 -9 -68
-26 -102 -38 -34 -12 -74 -31 -90 -42 -15 -11 -45 -26 -66 -33 -21 -6 -57 -26
-80 -44 -23 -17 -60 -43 -82 -56 -22 -13 -60 -43 -85 -67 l-46 -42 -109 55
c-61 30 -128 59 -150 65 -22 6 -62 18 -90 28 -27 10 -81 26 -120 36 -256 63
-282 69 -390 91 -178 36 -598 36 -752 -1 -34 -8 -73 -15 -87 -15 -14 0 -49 -9
-78 -19 -29 -11 -69 -22 -90 -25 -20 -4 -57 -18 -83 -31 -25 -14 -52 -25 -60
-25 -21 0 -216 -101 -264 -137 -53 -40 -82 -49 -110 -33 -26 13 -156 49 -226
61 -246 44 -646 41 -759 -6 -19 -8 -48 -15 -64 -15 -16 0 -49 -10 -73 -23 -24
-13 -60 -27 -79 -31 -19 -3 -50 -17 -70 -30 -19 -12 -51 -28 -70 -35 -19 -6
-55 -27 -79 -46 -24 -19 -48 -35 -52 -35 -5 0 -36 -25 -69 -55 -50 -46 -63
-54 -78 -45 -106 66 -156 94 -202 116 -30 14 -64 30 -75 36 -18 10 -130 50
-240 85 -27 8 -57 18 -65 21 -15 6 50 12 345 32 828 57 1766 232 2858 536
1260 350 1861 550 2512 837 1127 496 2036 1059 2880 1782 383 327 978 908
1214 1183 386 452 615 858 699 1242 85 386 68 577 -61 717 -59 64 -94 78 -257
103 -335 51 -1008 181 -1475 285 -442 99 -714 164 -1740 420 -561 140 -1353
335 -1760 434 -2950 719 -3344 816 -4220 1038 -1298 329 -2277 595 -3345 910
-649 191 -791 233 -1405 418 -2321 698 -3611 1156 -4830 1715 -38 18 -250 120
-470 227 -737 360 -1014 476 -1400 588 -333 96 -510 115 -635 66 -64 -24 -131
-83 -160 -141 -55 -108 -199 -871 -270 -1437 -72 -565 -94 -976 -87 -1650 5
-554 19 -796 71 -1205 244 -1915 991 -3530 2216 -4793 80 -82 157 -166 172
-185 14 -20 45 -49 69 -65 91 -61 124 -93 224 -215 882 -1077 2278 -1821 4390
-2343 930 -230 2163 -417 3120 -473 114 -7 118 -8 83 -20 -20 -7 -56 -24 -80
-37 -24 -14 -54 -28 -68 -32 -14 -4 -41 -19 -60 -34 -19 -16 -50 -36 -68 -45
-30 -15 -99 -72 -177 -144 -56 -53 -136 -145 -152 -176 -9 -17 -29 -46 -45
-64 -16 -19 -40 -58 -52 -87 -26 -57 -33 -63 -86 -82 -63 -23 -96 -17 -118 20
-10 19 -38 49 -62 68 -23 19 -57 48 -75 66 -18 17 -48 39 -66 49 -19 9 -51 31
-71 49 -21 17 -57 38 -80 45 -24 8 -59 22 -79 32 -69 35 -247 82 -377 98 -40
5 -76 12 -81 15 -5 2 -84 7 -175 9 -125 4 -180 1 -221 -10 -31 -7 -67 -14 -80
-14 -14 0 -48 -9 -77 -20 -29 -11 -62 -20 -73 -20 -12 0 -39 -9 -60 -21 -77
-40 -127 -49 -294 -54 -90 -3 -167 -8 -171 -10 -4 -3 -29 -7 -56 -10 -177 -20
-492 -121 -554 -179 -14 -13 -40 -31 -58 -40 -30 -15 -38 -16 -75 -3 -70 24
-179 55 -237 68 -69 15 -78 22 -106 86 -13 28 -36 66 -52 85 -16 18 -36 47
-45 64 -16 31 -96 123 -152 176 -79 73 -147 129 -177 144 -18 9 -47 29 -65 44
-17 15 -49 33 -70 40 -21 7 -49 21 -63 30 -14 10 -43 23 -65 30 -22 7 -65 23
-96 36 -31 13 -69 24 -83 24 -15 0 -37 5 -49 12 -40 21 -312 47 -447 42 -156
-5 -368 -35 -426 -59 -20 -8 -47 -15 -60 -15 -13 0 -52 -11 -86 -24 -35 -13
-101 -38 -148 -54 -47 -16 -98 -34 -115 -40 -68 -24 -182 -74 -215 -96 -142
-92 -164 -98 -194 -51 -9 13 -37 36 -63 51 -27 15 -59 37 -73 49 -25 22 -164
91 -270 135 -74 30 -171 54 -330 80 -81 13 -470 6 -524 -10 -21 -6 -59 -15
-85 -20 -61 -10 -213 -50 -226 -58 -5 -4 -46 -20 -90 -35 -226 -79 -268 -85
-327 -49 -18 11 -60 27 -93 36 -33 8 -85 21 -115 30 -71 19 -184 40 -235 43
-22 1 -92 6 -155 10 -193 13 -471 -10 -630 -53 -30 -8 -84 -21 -120 -29 -36
-7 -85 -21 -109 -29 -24 -9 -52 -16 -62 -16 -26 0 -221 -65 -266 -89 -30 -16
-129 -63 -165 -79 -4 -2 -28 16 -53 39 -25 23 -74 62 -108 85 -66 45 -272 154
-291 154 -6 0 -28 9 -49 20 -21 11 -62 27 -92 35 -29 7 -78 20 -107 29 -185
52 -537 76 -773 52 -104 -11 -243 -39 -400 -81 -55 -15 -122 -31 -150 -36 -27
-6 -69 -17 -92 -26 -45 -17 -86 -11 -203 27 -96 32 -301 42 -512 24 -70 -5
-93 -4 -120 9 -19 9 -54 21 -80 26 -25 6 -58 15 -74 22 -125 48 -582 83 -769
59 -183 -24 -323 -53 -486 -101 -36 -10 -73 -19 -82 -19 -48 0 -268 -84 -400
-152 -41 -22 -37 -23 -103 39 -22 21 -53 45 -70 53 -16 8 -50 31 -76 52 -26
20 -64 42 -85 49 -20 6 -57 24 -81 40 -24 15 -58 31 -76 35 -17 3 -52 17 -78
30 -26 13 -54 24 -62 24 -9 0 -50 11 -92 25 -42 14 -92 25 -111 25 -50 0 -70
14 -98 70 -14 27 -45 72 -70 100 -25 28 -45 55 -45 60 0 12 -162 173 -208 207
-20 15 -56 45 -80 66 -24 21 -59 45 -78 53 -19 8 -56 30 -82 48 -26 19 -58 37
-72 41 -14 4 -52 22 -85 40 -33 18 -76 36 -95 40 -19 4 -50 16 -70 26 -32 16
-60 24 -210 58 -200 44 -470 65 -645 50 -165 -15 -245 -25 -295 -37 -81 -20
-204 -44 -265 -52 -33 -4 -72 -13 -88 -19 -15 -6 -57 -18 -94 -26 -36 -8 -82
-24 -102 -35 -32 -17 -154 -61 -157 -57 -1 1 -27 49 -58 107 -106 195 -293
575 -419 850 -71 155 -88 192 -113 253 -14 34 -37 87 -51 117 -65 142 -279
689 -379 965 -57 161 -242 714 -283 850 -49 163 -91 307 -106 360 -8 28 -26
88 -39 135 -61 209 -213 809 -256 1010 -4 19 -26 120 -49 224 -88 401 -202
1006 -251 1331 -5 33 -22 151 -39 262 -17 111 -35 237 -40 280 -6 43 -17 130
-25 193 -18 134 -29 226 -56 480 -166 1535 -184 3080 -54 4630 21 259 54 580
74 740 5 41 19 152 31 245 18 151 85 618 109 765 41 248 38 234 89 510 89 489
230 1126 336 1520 12 47 35 132 50 190 16 58 48 175 72 260 25 85 47 164 50
175 52 199 270 873 388 1200 135 378 378 992 485 1230 77 171 110 246 110 249
0 9 172 371 295 621 559 1136 1250 2232 2024 3210 181 229 547 662 701 830 26
28 107 115 180 195 281 305 814 825 1161 1131 851 753 1894 1508 2879 2084
150 88 229 134 270 157 228 128 306 171 375 208 44 23 94 50 110 60 189 109
891 455 1250 617 111 50 165 74 240 108 295 134 1080 451 1383 559 37 13 164
58 282 101 315 112 816 278 1030 340 25 7 115 34 200 60 85 25 177 53 205 60
27 8 138 38 245 68 350 99 838 223 1125 287 130 28 162 36 270 61 58 13 652
131 905 179 118 22 235 45 260 50 25 5 86 16 135 25 50 9 110 20 135 25 68 15
514 91 675 116 175 27 207 32 385 58 155 22 324 44 585 76 78 10 208 23 390
40 193 18 681 51 890 59 261 11 1232 5 1530 -9z m22124 -17745 c174 -33 294
-98 417 -228 267 -277 457 -784 554 -1474 47 -334 53 -428 53 -783 1 -437 -20
-643 -99 -968 -55 -224 -162 -490 -262 -646 -108 -170 -370 -434 -550 -555
-65 -44 -444 -231 -468 -231 -18 0 -299 -149 -359 -191 -93 -64 -194 -156
-257 -234 -27 -33 -53 -66 -59 -73 -82 -101 -238 -450 -407 -912 -142 -387
-271 -868 -637 -2375 -84 -345 -83 -343 -291 -1378 -18 -92 -45 -238 -59 -325
-13 -86 -34 -206 -45 -267 -10 -60 -26 -153 -34 -205 -8 -52 -24 -149 -35
-215 -10 -66 -24 -156 -31 -200 -6 -44 -18 -118 -25 -165 -8 -47 -19 -119 -25
-160 -6 -41 -15 -88 -20 -105 -5 -16 -18 -93 -30 -170 -11 -77 -27 -176 -35
-220 -28 -151 -47 -270 -55 -343 -5 -40 -11 -76 -14 -80 -3 -5 -12 -75 -21
-158 -9 -82 -22 -185 -30 -229 -8 -44 -31 -170 -50 -280 -20 -110 -43 -229
-51 -265 -8 -36 -28 -126 -44 -200 -70 -326 -101 -467 -144 -640 -25 -102 -48
-205 -52 -230 -16 -106 -156 -641 -174 -665 -4 -5 -11 -21 -15 -35 -4 -14 -21
-59 -37 -101 l-30 -77 -61 -7 c-34 -3 -87 -15 -117 -25 -30 -10 -87 -23 -126
-29 -39 -6 -90 -17 -113 -26 -24 -8 -62 -15 -85 -15 -23 0 -57 -5 -76 -11 -51
-16 -227 -28 -470 -32 -118 -2 -219 -5 -225 -7 -27 -7 -46 4 -99 56 -156 151
-178 381 -84 874 57 300 121 528 278 1000 138 414 324 939 352 995 9 17 23 55
33 85 10 30 26 73 36 95 9 22 36 87 60 145 46 116 174 429 239 585 23 55 54
134 70 175 15 41 51 127 78 190 27 63 111 259 186 435 75 176 144 336 152 355
19 40 74 170 167 390 59 141 209 514 292 730 18 47 52 132 74 190 39 99 73
184 186 475 26 66 73 197 105 290 32 94 95 276 140 405 45 129 111 327 146
440 36 113 89 279 119 370 139 432 396 1461 450 1805 18 115 20 303 5 402 -32
202 -148 443 -356 739 -122 174 -253 463 -302 665 -50 202 -68 534 -42 744 46
370 195 780 452 1245 44 80 90 161 102 180 461 731 975 1255 1392 1418 28 11
95 30 150 41 167 35 203 36 313 16z m-3145 -3572 c10 -65 84 -383 95 -408 6
-11 22 -56 37 -100 49 -143 55 -159 85 -221 16 -33 29 -67 29 -75 0 -8 4 -19
9 -24 5 -6 27 -44 49 -86 21 -42 83 -137 136 -212 53 -74 107 -155 120 -178
12 -24 41 -75 62 -114 56 -99 68 -147 60 -252 -13 -186 -25 -256 -84 -498 -33
-137 -70 -297 -83 -355 -41 -194 -71 -314 -100 -402 -16 -48 -39 -127 -50
-174 -11 -48 -35 -132 -54 -188 -18 -56 -41 -130 -50 -166 -9 -36 -22 -74 -29
-85 -32 -53 -69 -168 -117 -360 -28 -115 -60 -225 -70 -243 -11 -18 -42 -99
-69 -179 -28 -80 -54 -151 -59 -157 -11 -13 -94 -270 -106 -326 -4 -19 -18
-51 -32 -70 -13 -19 -31 -60 -39 -90 -9 -30 -31 -87 -49 -126 -19 -39 -42
-102 -51 -140 -9 -38 -25 -80 -34 -94 -9 -14 -24 -50 -33 -80 -10 -30 -26 -68
-37 -85 -36 -54 -59 -109 -79 -190 -10 -44 -31 -104 -45 -132 -14 -29 -26 -59
-26 -65 0 -7 -15 -43 -34 -80 -19 -36 -42 -95 -52 -130 -9 -34 -30 -87 -45
-116 -16 -29 -29 -59 -29 -65 0 -12 -9 -31 -47 -97 -11 -19 -25 -57 -32 -85
-6 -27 -25 -68 -40 -90 -16 -22 -32 -56 -36 -75 -4 -19 -17 -51 -30 -71 -13
-20 -27 -53 -30 -73 -4 -20 -11 -39 -16 -42 -5 -3 -9 -13 -9 -23 0 -10 -11
-39 -25 -65 -14 -26 -25 -53 -25 -60 0 -8 -15 -36 -33 -62 -18 -27 -41 -78
-51 -114 -10 -36 -26 -76 -36 -90 -9 -14 -22 -47 -29 -73 -6 -26 -24 -65 -39
-86 -16 -22 -34 -65 -41 -97 -8 -33 -22 -71 -32 -86 -11 -14 -19 -31 -19 -37
0 -12 0 -13 -48 -111 -18 -36 -41 -90 -51 -120 -17 -51 -20 -55 -47 -53 -74 6
-397 23 -561 29 -101 4 -183 8 -183 10 0 3 73 152 163 332 89 180 186 377 214
437 96 205 135 290 159 348 14 32 37 86 53 120 110 243 350 840 451 1122 18
50 48 133 66 185 51 140 186 545 234 700 23 74 45 146 50 160 9 25 50 165 75
255 8 28 26 88 39 135 73 250 205 773 275 1090 145 655 239 1206 341 2000 30
230 90 870 90 956 0 66 15 64 24 -3z m-40839 -8744 c-33 -5 -79 -16 -103 -25
-39 -15 -46 -15 -83 0 -21 9 -48 16 -59 16 -10 0 -22 5 -25 10 -4 7 52 10 162
9 137 -1 157 -3 108 -10z m-1650 -64 c-16 -8 -40 -14 -53 -15 -13 0 -51 -11
-85 -24 -34 -13 -77 -27 -96 -31 -18 -4 -68 -23 -110 -42 -42 -19 -98 -44
-126 -56 -27 -13 -83 -39 -124 -59 l-73 -36 -62 43 c-80 57 -145 109 -145 115
-1 10 789 117 864 118 l40 0 -30 -13z m38961 -380 c87 -20 188 -40 224 -45 65
-9 132 -24 245 -54 32 -9 76 -16 96 -16 53 0 153 -50 310 -154 154 -102 310
-272 394 -429 l26 -49 -30 -87 c-17 -49 -39 -124 -50 -167 -11 -43 -24 -94
-30 -112 -20 -66 -121 -499 -130 -557 -19 -126 -43 -263 -61 -345 -21 -96 -27
-220 -21 -418 1 -29 15 -110 32 -179 l30 -126 -22 -15 c-13 -9 -32 -25 -43
-36 -27 -27 -98 -74 -180 -119 -82 -45 -144 -56 -583 -96 -284 -26 -294 -26
-344 -9 -98 33 -210 96 -315 176 -31 23 -60 42 -65 42 -4 0 -29 18 -56 40 -26
22 -74 61 -106 87 -161 132 -309 282 -379 383 -17 25 -47 64 -67 86 -107 123
-194 252 -273 404 -84 160 -156 381 -157 480 -1 75 21 319 34 385 38 181 117
374 198 484 41 56 203 221 217 221 4 0 27 16 51 35 24 19 49 35 54 35 6 0 27
11 47 25 58 40 261 115 309 115 14 0 39 4 55 9 30 10 86 17 229 30 165 14 198
12 361 -24z m4754 -97 c141 -39 313 -104 381 -144 20 -12 51 -27 71 -33 19 -6
50 -23 68 -36 19 -14 39 -25 46 -25 6 0 29 -12 50 -27 21 -15 60 -38 85 -52
169 -93 367 -273 432 -393 92 -170 155 -395 182 -645 10 -89 5 -96 -119 -167
-227 -132 -376 -208 -546 -280 -188 -80 -380 -150 -388 -141 -3 3 4 15 16 28
36 38 98 177 119 267 22 92 24 200 5 305 -12 71 -65 208 -97 250 -12 17 -28
42 -36 56 -32 60 -235 279 -259 279 -5 0 -24 13 -42 29 -18 15 -71 48 -118 72
l-85 44 8 60 c5 33 19 110 33 170 13 61 24 120 24 132 0 12 9 59 20 105 11 46
20 104 20 131 0 55 -8 54 130 15z m-45290 -12 c71 -20 152 -54 215 -90 224
-129 236 -137 367 -269 149 -148 201 -226 260 -382 42 -113 58 -183 68 -310
14 -183 3 -298 -44 -465 -41 -146 -54 -182 -90 -272 -20 -48 -36 -93 -36 -98
0 -6 -8 -9 -17 -6 -72 22 -327 88 -410 107 -57 12 -103 26 -103 31 0 4 15 32
34 61 19 28 38 66 41 82 4 17 15 53 25 80 10 28 21 96 25 151 6 87 4 114 -15
190 -40 158 -174 338 -318 427 -116 72 -286 110 -482 108 -307 -4 -644 -193
-826 -466 -15 -22 -39 -58 -54 -80 -15 -22 -31 -51 -35 -65 -4 -14 -18 -51
-31 -82 -13 -32 -24 -71 -24 -87 0 -40 -9 -61 -27 -61 -30 0 -593 150 -676
180 -46 17 -105 44 -129 59 l-45 29 13 58 c22 101 81 259 135 359 61 114 286
313 439 390 19 10 42 23 50 30 8 7 40 26 70 42 30 16 64 34 75 40 148 84 366
167 613 232 23 6 61 16 85 22 105 28 148 38 232 53 135 24 144 24 360 21 140
-3 216 -8 255 -19z m4075 8 c93 -4 289 -38 380 -64 56 -16 271 -125 307 -155
16 -14 33 -25 37 -25 14 0 185 -173 227 -230 62 -83 117 -201 154 -330 l19
-65 -22 -17 c-12 -10 -26 -18 -32 -18 -5 0 -28 -11 -51 -23 -22 -12 -72 -39
-111 -59 -39 -21 -74 -42 -78 -48 -10 -16 -35 -12 -63 11 -38 29 -129 84 -182
110 -25 12 -54 26 -65 32 -11 6 -42 23 -70 37 -29 15 -58 40 -70 60 -28 46
-79 98 -173 173 -35 29 -177 75 -266 88 -107 14 -219 3 -330 -32 -49 -16 -100
-29 -112 -29 -13 0 -38 -6 -56 -14 -18 -8 -70 -28 -116 -45 -59 -23 -111 -53
-180 -106 -54 -40 -106 -83 -117 -95 -22 -24 -80 -51 -162 -75 -32 -9 -67 -22
-78 -29 -11 -7 -40 -18 -64 -25 -24 -7 -60 -23 -80 -35 -20 -12 -52 -28 -71
-36 -19 -8 -55 -27 -79 -42 -25 -15 -50 -28 -56 -28 -6 0 -34 -16 -61 -35 -27
-19 -54 -35 -60 -35 -6 0 -29 -13 -51 -29 -41 -30 -97 -61 -109 -61 -16 0 29
198 59 256 8 16 17 41 20 55 9 35 71 162 115 235 20 33 46 76 57 94 34 56 130
164 212 238 97 87 190 151 312 214 74 38 104 48 143 48 26 0 74 8 105 18 82
27 193 52 228 53 17 0 104 18 195 39 150 35 173 38 255 33 50 -3 113 -7 140
-9z m-1903 -46 c-9 -17 -30 -40 -45 -52 -15 -11 -44 -45 -64 -74 -19 -30 -48
-68 -63 -86 -15 -17 -37 -51 -50 -76 -12 -25 -30 -54 -41 -65 -10 -11 -30 -47
-45 -80 -15 -33 -36 -72 -46 -87 -10 -15 -27 -52 -38 -82 -10 -30 -25 -65 -33
-78 -9 -12 -23 -47 -32 -76 -14 -41 -27 -59 -59 -81 -22 -16 -54 -43 -70 -60
-17 -17 -33 -31 -38 -31 -4 0 -8 22 -8 48 0 27 -6 71 -14 98 -8 27 -18 72 -21
99 -4 28 -16 70 -26 95 -10 25 -23 65 -29 90 -11 43 -22 66 -99 219 -17 35
-31 65 -29 66 7 6 147 65 154 65 5 0 31 9 59 19 27 11 86 29 130 41 44 12 109
30 145 40 116 32 154 41 235 56 44 8 83 15 88 17 4 1 18 3 32 3 l25 2 -18 -30z
m35655 -123 c131 -30 198 -46 238 -56 22 -5 60 -11 85 -13 49 -4 111 -18 205
-47 33 -10 81 -20 108 -22 26 -2 49 -6 52 -9 6 -5 -19 -91 -43 -153 -30 -72
-61 -210 -88 -382 -4 -24 -9 -43 -11 -43 -2 0 -21 13 -41 29 -20 16 -50 33
-67 39 -16 6 -65 24 -108 41 -43 16 -97 33 -119 36 -23 4 -73 19 -112 32 -61
22 -88 26 -201 26 -133 0 -163 -5 -272 -45 l-62 -23 -28 21 c-68 49 -264 133
-388 166 -22 6 -64 19 -93 29 -30 11 -74 19 -98 19 -24 0 -44 3 -44 8 0 11 98
93 167 138 122 81 316 164 385 164 15 0 39 5 55 11 22 9 254 37 395 48 9 0 47
-6 85 -14z m-31162 -130 c131 -6 384 -57 449 -89 17 -9 47 -22 66 -31 52 -22
163 -89 167 -100 3 -10 -84 -39 -162 -54 -50 -9 -190 -46 -270 -71 -58 -18
-62 -18 -130 0 -38 10 -82 22 -97 28 -47 19 -220 33 -343 27 -198 -9 -249 -13
-278 -24 -16 -6 -43 -11 -61 -11 -19 0 -51 -6 -72 -13 -22 -8 -61 -17 -89 -20
l-50 -5 -19 51 c-42 119 -56 161 -56 169 0 4 20 8 45 8 24 0 66 7 92 16 65 23
155 43 233 54 78 11 342 68 350 76 3 3 46 3 95 -2 50 -4 108 -8 130 -9z m1335
-780 c4 -2 42 -8 86 -14 138 -17 308 -84 449 -176 77 -50 221 -194 266 -265
55 -89 127 -255 152 -355 52 -202 63 -414 28 -528 -5 -17 -20 -63 -32 -102
-30 -96 -110 -269 -165 -354 -49 -76 -110 -164 -138 -198 -17 -19 -41 -52 -55
-73 -14 -20 -39 -56 -56 -79 l-30 -42 -65 6 c-106 10 -611 82 -950 136 -373
59 -606 89 -956 124 -163 17 -261 31 -266 38 -4 7 -8 21 -8 33 0 11 -6 40 -14
65 -45 141 -74 397 -60 529 4 41 8 77 9 80 0 3 4 23 8 45 34 184 129 403 255
585 103 150 410 380 506 380 19 0 65 11 103 24 118 41 146 49 213 61 70 13
321 82 329 91 6 6 381 -5 391 -11z m37085 -88 c56 -49 137 -179 160 -254 8
-26 15 -75 15 -109 0 -49 -5 -68 -28 -105 -83 -130 -241 -199 -386 -169 l-57
12 7 36 c6 36 49 226 120 530 l36 152 41 -25 c23 -13 65 -44 92 -68z m-13323
73 c21 -6 38 -14 38 -19 0 -12 -50 -72 -88 -107 -18 -16 -47 -51 -65 -79 -31
-49 -33 -50 -92 -56 -95 -10 -195 -30 -255 -49 -30 -10 -71 -21 -90 -25 -19
-4 -53 -15 -75 -25 -22 -10 -65 -27 -95 -38 -30 -10 -63 -22 -72 -26 -12 -6
-21 0 -33 24 -9 17 -31 48 -49 68 -35 40 -86 112 -86 123 0 8 92 62 171 100
167 80 332 110 633 116 66 2 137 -2 158 -7z m4968 -33 c214 -51 379 -136 537
-274 85 -75 263 -272 347 -385 99 -133 194 -311 240 -452 22 -67 28 -93 57
-256 23 -130 18 -393 -10 -530 -15 -73 -46 -170 -80 -251 -38 -91 10 -78 -411
-114 -162 -13 -310 -27 -327 -29 -18 -3 -33 -1 -33 4 0 5 29 42 64 82 59 68
92 126 154 273 31 71 45 170 44 315 0 120 -2 130 -42 249 -75 223 -206 378
-389 462 -354 162 -722 17 -986 -390 -121 -185 -172 -478 -126 -714 12 -60 26
-117 32 -128 6 -11 16 -40 23 -64 16 -50 116 -207 147 -229 l22 -15 -24 -5
c-13 -3 -105 -17 -204 -31 -99 -14 -247 -39 -329 -56 -83 -16 -155 -28 -161
-25 -19 7 -94 160 -97 197 -2 19 -7 37 -11 40 -9 7 -23 82 -37 204 -13 105
-12 292 2 385 5 36 13 97 19 135 5 39 15 90 21 115 6 25 15 70 19 100 19 137
82 368 124 455 16 33 59 138 82 199 8 22 22 51 32 65 10 14 22 37 26 51 4 14
20 46 36 71 16 25 29 49 29 52 0 13 94 144 147 204 141 162 472 296 768 312
123 7 199 1 295 -22z m-2595 2 c138 -32 230 -65 340 -122 113 -59 307 -220
365 -303 l29 -42 -35 -83 c-20 -46 -46 -113 -59 -149 -13 -36 -39 -110 -59
-165 -20 -55 -41 -120 -46 -145 -19 -85 -45 -170 -52 -170 -4 0 -13 10 -19 23
-20 37 -120 146 -163 177 -63 46 -173 95 -261 118 -86 21 -215 23 -268 3 -16
-6 -38 -11 -49 -11 -50 0 -223 -100 -311 -179 l-28 -25 -24 29 c-13 17 -30 41
-37 55 -69 135 -334 403 -446 451 l-43 19 17 31 c34 66 160 225 206 259 112
84 229 140 393 188 79 23 195 50 240 55 58 6 260 -3 310 -14z m-34482 -34 c29
-9 70 -26 92 -38 l40 -23 -3 -64 c-4 -73 -9 -82 -55 -101 -82 -33 -198 -142
-247 -232 l-21 -38 -67 6 c-37 4 -125 13 -197 21 -242 26 -225 19 -199 93 44
126 132 243 232 304 119 74 309 106 425 72z m6403 -50 c-3 -9 -24 -39 -46 -68
-64 -81 -107 -148 -134 -203 -13 -28 -35 -67 -49 -88 -14 -20 -29 -51 -32 -69
-4 -18 -18 -50 -30 -72 -13 -22 -26 -56 -30 -75 -4 -19 -16 -53 -26 -75 -10
-22 -23 -59 -29 -81 -7 -28 -19 -48 -38 -59 -15 -9 -43 -35 -63 -58 l-36 -40
-7 52 c-4 29 -16 75 -26 102 -11 27 -20 59 -20 71 0 42 -143 341 -185 388 -8
9 -15 19 -15 23 0 16 248 119 365 152 28 8 66 21 85 29 19 8 67 23 105 34 39
11 93 27 120 35 69 21 99 21 91 2z m4429 -4 c28 -6 82 -15 120 -22 137 -24
290 -93 438 -199 l49 -35 -44 -9 c-23 -4 -65 -16 -93 -26 -27 -9 -70 -24 -95
-33 -104 -35 -179 -67 -228 -96 -28 -17 -76 -45 -104 -62 l-53 -32 -65 18
c-78 21 -214 38 -255 31 -120 -20 -154 -28 -210 -51 -35 -14 -71 -25 -80 -25
-31 0 -249 -101 -277 -127 -15 -15 -29 -25 -31 -22 -6 9 -29 96 -38 147 -5 30
-18 71 -29 93 -11 21 -20 49 -20 62 0 13 -13 50 -29 83 -42 85 -60 132 -53
138 3 3 20 6 38 6 18 0 58 9 87 20 69 26 145 47 227 64 64 13 154 37 280 75
57 17 87 19 240 15 96 -2 198 -8 225 -13z m2384 -17 c8 -7 -7 -16 -41 -24 -35
-9 -99 -34 -210 -82 -79 -34 -84 -33 -146 41 -43 51 -43 51 -20 60 13 5 32 11
43 13 23 5 368 -2 374 -8z m16566 -28 c72 -21 157 -44 190 -51 74 -16 152 -38
225 -64 30 -11 70 -20 88 -21 18 0 47 -7 65 -16 44 -22 160 -99 230 -152 55
-42 188 -183 235 -249 l22 -31 -30 -22 -30 -21 -85 40 c-89 43 -121 56 -225
92 -36 12 -85 30 -110 40 -25 9 -63 20 -85 24 -22 4 -56 13 -75 20 -20 7 -62
16 -95 20 -33 4 -71 12 -85 17 -52 20 -419 26 -481 8 -19 -6 -51 -10 -73 -10
-46 0 -193 -27 -256 -47 -25 -8 -71 -20 -103 -28 -32 -8 -74 -23 -95 -34 -20
-10 -51 -22 -68 -25 -18 -4 -52 -20 -77 -36 -24 -15 -66 -38 -93 -49 -26 -12
-55 -28 -64 -35 -8 -8 -37 -26 -65 -41 -27 -16 -67 -43 -88 -61 -20 -19 -42
-34 -47 -34 -5 0 -28 -16 -50 -37 l-41 -36 -27 20 c-15 11 -42 28 -60 37 -29
15 -33 21 -27 44 16 69 99 252 147 327 39 61 142 169 211 222 102 77 296 169
412 195 89 20 289 36 430 34 141 -2 158 -4 280 -40z m-25387 -41 c34 -3 93
-17 130 -31 86 -33 261 -121 331 -167 79 -52 221 -183 274 -252 140 -184 218
-443 203 -682 -5 -96 -10 -127 -37 -240 -7 -27 -15 -64 -18 -83 -5 -27 -11
-35 -26 -33 -89 8 -460 55 -463 58 -2 2 3 32 12 67 40 161 8 325 -92 465 -92
129 -237 229 -387 265 -108 27 -314 28 -400 3 -194 -56 -308 -117 -428 -228
-74 -68 -168 -188 -195 -250 -6 -15 -18 -30 -25 -33 -7 -2 -139 22 -293 55
-153 33 -332 70 -397 83 l-118 22 6 31 c3 16 26 71 51 121 37 76 60 107 132
178 84 83 140 130 206 171 18 11 48 32 67 48 20 15 39 27 43 27 3 0 29 16 57
35 28 19 56 35 61 35 5 0 28 12 51 28 101 66 248 126 512 210 214 68 259 78
450 97 126 12 159 12 293 0z m15232 5 c165 -16 344 -86 484 -189 99 -73 205
-205 256 -317 96 -213 130 -339 148 -559 12 -137 0 -232 -48 -390 -46 -152
-133 -340 -215 -470 -25 -38 -57 -90 -71 -115 -160 -270 -433 -572 -661 -732
-119 -85 -110 -83 -358 -69 -121 6 -303 19 -404 27 -198 17 -215 22 -310 93
-57 43 -189 178 -235 241 -68 92 -144 255 -187 400 -66 221 -86 312 -101 460
-24 237 -13 354 59 610 24 88 112 285 163 365 111 177 383 425 465 425 17 0
57 13 90 30 33 16 66 30 73 30 7 0 30 9 52 20 22 11 49 20 60 20 12 0 42 9 68
19 193 80 247 95 347 101 153 9 221 9 325 0z m-2239 -10 c120 -13 189 -34 314
-97 124 -61 123 -60 89 -119 -15 -27 -39 -64 -53 -83 -15 -19 -38 -57 -52 -85
-14 -28 -35 -69 -47 -91 -31 -59 -80 -170 -88 -199 -3 -14 -9 -26 -13 -26 -3
0 -19 20 -35 44 -16 23 -47 55 -70 70 -23 15 -55 37 -72 50 -17 12 -57 28 -88
35 -49 11 -60 18 -86 56 -17 24 -39 65 -50 91 -11 26 -38 69 -60 97 -22 27
-40 53 -40 58 0 5 -31 43 -70 86 -38 43 -70 81 -70 84 0 33 298 50 491 29z
m21232 -59 c45 -18 102 -171 77 -210 -7 -12 -12 -11 -30 10 -11 13 -30 41 -41
62 -11 21 -35 55 -53 75 -18 20 -39 48 -46 61 -12 24 -12 24 26 18 22 -3 52
-10 67 -16z m-5813 4 c0 -2 -5 -16 -12 -30 -12 -26 -24 -30 -46 -16 -11 6 -7
13 14 30 25 20 44 27 44 16z m-4902 -90 c3 -2 -2 -15 -11 -28 -15 -23 -98 -57
-139 -57 -11 0 -40 -9 -66 -19 -26 -11 -67 -26 -92 -34 -94 -31 -212 -87 -246
-117 -46 -40 -69 -48 -122 -42 -40 4 -44 8 -78 64 -19 34 -33 66 -31 72 5 13
191 107 257 129 47 16 136 34 205 41 48 5 317 -3 323 -9z m-11834 -45 c70 -25
234 -105 287 -141 289 -198 431 -450 457 -813 12 -166 -9 -317 -81 -598 -19
-75 -43 -128 -105 -241 -45 -79 -93 -169 -107 -198 -27 -58 -49 -95 -101 -174
-19 -27 -41 -70 -49 -95 -9 -26 -35 -66 -61 -93 -43 -46 -48 -48 -87 -42 -23
3 -125 12 -227 20 -310 26 -477 50 -855 125 -310 61 -357 67 -578 76 -178 7
-178 7 -197 34 -62 88 -131 254 -170 415 -16 62 -21 359 -8 440 29 184 57 292
104 393 65 143 215 301 444 468 36 26 81 59 100 73 85 63 319 190 352 191 7 1
38 14 68 30 30 17 61 30 68 30 8 0 26 7 40 15 69 37 290 95 417 108 84 9 230
-3 289 -23z m-2204 -260 c34 -11 78 -29 98 -40 20 -11 42 -20 48 -20 6 0 17
-6 23 -13 8 -11 6 -18 -9 -32 -11 -10 -34 -41 -51 -69 -18 -28 -40 -63 -49
-77 -40 -57 -120 -220 -131 -266 -7 -26 -18 -62 -25 -79 l-13 -31 -53 10 c-29
6 -105 10 -168 10 -130 -1 -210 -22 -333 -86 -87 -46 -115 -67 -201 -152 -98
-97 -127 -137 -190 -257 -77 -147 -99 -231 -99 -393 -1 -115 2 -139 26 -207
14 -43 36 -95 49 -117 12 -22 20 -43 16 -46 -7 -7 -523 10 -671 21 -59 5 -80
10 -87 24 -16 29 -38 155 -46 252 -16 220 50 586 129 718 78 130 243 299 407
418 25 18 65 47 89 65 67 49 122 84 171 110 25 13 54 28 65 34 11 6 45 22 75
36 30 14 85 39 122 56 37 17 70 31 75 31 4 0 19 6 33 13 78 40 286 93 430 110
71 8 213 -4 270 -23z m9205 -44 c221 -49 330 -101 434 -206 36 -37 80 -85 96
-106 45 -58 115 -167 115 -178 0 -5 10 -23 23 -40 36 -48 186 -357 201 -416 4
-14 13 -41 20 -60 13 -33 31 -97 75 -262 49 -182 49 -185 80 -375 12 -79 8
-436 -5 -440 -6 -2 -9 -15 -6 -28 2 -14 -6 -53 -18 -88 -34 -93 -145 -315
-188 -374 -89 -123 -123 -163 -149 -169 -91 -23 -1393 53 -1588 93 -31 6 -83
42 -150 105 -22 20 -58 47 -81 60 -57 32 -100 86 -201 253 -53 87 -117 249
-138 350 -48 231 -49 474 -4 690 16 72 46 170 63 203 8 16 21 47 29 69 14 42
113 226 152 283 133 196 172 246 255 333 157 166 376 284 585 317 83 12 315 4
400 -14z m9465 -90 c231 -50 433 -129 576 -224 55 -37 144 -129 205 -212 33
-45 127 -217 161 -295 14 -33 33 -78 43 -100 65 -150 96 -286 132 -575 14
-114 15 -155 5 -260 -6 -69 -15 -138 -21 -155 -5 -16 -17 -54 -26 -84 -19 -62
-54 -118 -134 -211 -30 -36 -56 -66 -57 -68 -2 -4 -196 -20 -464 -37 -428 -28
-647 -44 -943 -71 l-289 -26 -99 66 c-54 36 -102 66 -106 66 -10 0 -140 88
-182 124 -19 16 -53 37 -75 47 -121 54 -306 323 -361 524 -17 63 -36 275 -30
335 8 86 23 175 35 210 44 130 84 213 125 260 12 14 30 39 40 55 46 75 172
201 341 340 67 56 149 115 157 115 5 0 27 13 50 28 40 26 114 61 202 96 63 24
202 56 290 66 106 12 343 4 425 -14z m-6610 4 c108 -10 142 -17 265 -57 63
-20 125 -51 125 -62 0 -4 -19 -16 -42 -26 -24 -10 -56 -28 -73 -40 -16 -12
-53 -34 -81 -49 -58 -32 -63 -31 -135 30 -24 20 -62 45 -84 54 -22 10 -46 24
-53 33 -7 8 -38 25 -70 38 -69 27 -116 59 -105 70 4 4 31 10 58 12 28 2 57 4
65 5 8 1 67 -3 130 -8z m-13998 -125 c14 -9 7 -21 -51 -86 -36 -43 -73 -90
-81 -105 -8 -16 -25 -44 -37 -61 -13 -18 -34 -54 -46 -80 -12 -27 -32 -64 -44
-84 -12 -19 -29 -60 -37 -90 -8 -30 -19 -67 -26 -84 -6 -16 -17 -59 -25 -95
-23 -107 -29 -118 -77 -130 -64 -16 -166 -67 -228 -115 -104 -80 -188 -206
-228 -340 -33 -112 -42 -148 -42 -177 0 -24 -4 -28 -27 -28 -28 0 -430 44
-511 56 l-43 6 6 72 c16 196 53 325 145 501 122 234 334 495 513 631 115 88
282 162 442 198 39 9 79 18 90 20 37 8 290 1 307 -9z m-10146 -93 c-5 -5 -77
17 -88 27 -4 4 0 18 9 31 l17 23 33 -38 c18 -21 31 -40 29 -43z m37213 30 c10
-21 51 -85 91 -142 128 -188 134 -196 256 -338 43 -51 114 -148 114 -158 0
-31 -224 -253 -316 -314 -85 -56 -230 -128 -275 -137 -28 -5 -31 -4 -26 11 40
105 39 699 -1 821 -6 17 -13 53 -16 81 -6 52 -6 52 39 92 25 22 59 59 76 81
16 23 31 41 34 41 2 0 13 -17 24 -38z m-28579 -9 c0 -12 -33 -43 -45 -43 -24
0 -161 -68 -220 -109 -33 -23 -79 -67 -103 -96 -23 -30 -47 -55 -52 -55 -44 0
83 161 172 218 54 34 141 69 213 85 32 7 35 7 35 0z m19610 -74 c88 -15 323
-84 368 -108 29 -16 28 -24 -13 -78 -19 -25 -35 -50 -35 -56 0 -5 -18 -45 -40
-88 -22 -43 -40 -87 -40 -98 0 -10 -9 -38 -20 -62 -11 -24 -20 -59 -20 -78 0
-19 -12 -54 -26 -79 -19 -32 -23 -47 -15 -55 13 -13 14 -76 2 -96 -7 -11 -25
-7 -92 22 -161 67 -317 89 -449 63 -193 -37 -289 -85 -401 -198 -90 -91 -104
-91 -95 -2 5 42 2 55 -14 74 -11 13 -23 35 -26 49 -14 64 -77 214 -104 249
-11 14 -29 44 -39 66 -10 23 -32 55 -49 73 -18 17 -32 35 -32 40 0 16 213 183
234 183 5 0 23 11 40 24 99 75 342 149 556 169 58 6 241 -3 310 -14z m-8850
-105 c38 -36 72 -74 75 -85 4 -12 -8 -50 -33 -102 -46 -95 -112 -260 -112
-280 0 -8 -8 -41 -19 -73 -10 -33 -21 -77 -24 -99 -2 -22 -10 -69 -16 -105 -6
-36 -13 -91 -17 -122 -3 -32 -9 -58 -13 -58 -5 0 -27 20 -50 46 -47 50 -48 64
-9 155 10 25 25 70 33 100 7 30 20 72 29 94 8 22 15 55 16 74 0 18 7 59 15 92
12 44 14 97 11 221 -2 90 -8 181 -11 202 l-8 38 32 -16 c17 -9 63 -46 101 -82z
m23932 55 l52 -12 -63 -19 c-35 -11 -65 -17 -67 -15 -8 7 7 57 17 57 4 0 32
-5 61 -11z m-20133 -90 c83 -14 163 -33 221 -54 72 -26 231 -107 276 -141 23
-18 52 -38 65 -45 33 -17 99 -72 99 -83 0 -4 -20 -49 -44 -100 -72 -149 -96
-204 -96 -217 0 -7 -9 -37 -19 -68 -20 -60 -42 -132 -66 -223 -9 -32 -20 -58
-25 -58 -5 0 -16 13 -24 28 -38 73 -169 181 -266 220 -116 45 -302 66 -390 43
-19 -6 -53 -11 -74 -13 -44 -3 -37 -14 -77 127 -11 39 -26 98 -34 133 -8 35
-20 72 -26 83 -6 11 -17 45 -25 75 -8 30 -25 76 -39 102 -14 26 -25 53 -25 60
0 7 -7 27 -16 43 -8 17 -14 33 -11 35 7 7 160 45 217 53 82 13 303 13 379 0z
m2383 0 c96 -14 240 -54 303 -84 28 -13 66 -30 85 -39 46 -20 96 -50 140 -81
55 -40 101 -72 160 -112 66 -44 230 -207 286 -283 23 -30 51 -77 64 -105 49
-105 70 -161 70 -183 0 -12 7 -39 16 -60 20 -45 28 -308 12 -387 -22 -109 -66
-230 -112 -310 -92 -159 -133 -208 -218 -267 -27 -18 -77 -60 -113 -92 l-65
-59 -233 -8 c-127 -4 -299 -8 -382 -8 -160 -1 -167 3 -68 41 68 26 160 98 304
240 130 127 138 138 186 238 58 119 62 133 68 247 6 110 -18 216 -66 293 -5 8
-17 31 -28 50 -21 38 -102 119 -164 164 -83 61 -248 106 -387 106 -86 0 -217
-23 -260 -45 -16 -8 -34 -15 -41 -15 -36 0 -185 -100 -267 -179 -128 -124
-183 -206 -235 -351 -29 -79 -31 -94 -31 -220 0 -120 3 -143 27 -208 14 -40
34 -85 44 -100 10 -15 25 -39 32 -53 30 -60 193 -176 285 -203 34 -10 -26 -14
-373 -24 -466 -13 -433 -18 -470 62 -28 60 -59 156 -72 223 -26 137 -19 497
12 643 5 25 14 68 20 95 6 28 17 68 24 90 8 22 25 76 39 120 14 44 41 118 61
165 20 47 39 92 42 100 20 49 139 214 185 255 145 131 414 264 643 319 61 14
124 27 140 29 68 9 269 6 337 -4z m-23104 -78 l53 -24 -2 -123 c-2 -122 -3
-124 -25 -124 -13 0 -144 25 -291 55 -147 30 -271 55 -276 55 -16 0 24 47 72
83 105 80 193 107 336 103 59 -1 94 -8 133 -25z m30272 -54 c67 -39 143 -136
165 -209 8 -28 15 -77 15 -108 0 -68 -34 -205 -59 -240 -10 -14 -28 -43 -39
-65 -31 -62 -167 -181 -238 -211 -20 -9 -71 -16 -113 -17 l-76 -2 -6 65 c-6
64 -5 66 33 110 52 62 112 163 144 246 24 63 27 81 27 204 0 100 -5 146 -17
179 -27 73 -23 78 64 80 35 1 59 -7 100 -32z m-35915 -46 c391 -97 535 -122
980 -166 295 -29 566 -66 699 -96 83 -18 115 -29 89 -29 -6 0 -28 -12 -49 -27
-80 -55 -262 -134 -359 -157 -259 -61 -535 -64 -750 -10 -100 25 -127 35 -205
71 -173 79 -230 113 -390 230 -132 96 -311 259 -275 249 11 -3 128 -32 260
-65z m48421 -298 c-3 -10 -24 -98 -46 -197 -57 -244 -136 -475 -316 -923 -14
-35 -22 -42 -53 -48 -308 -53 -964 -189 -1401 -290 -169 -39 -249 -54 -410
-79 -58 -8 -163 -25 -235 -36 -71 -11 -177 -27 -235 -35 -460 -64 -739 -113
-1370 -239 -206 -41 -395 -77 -420 -81 -56 -8 -270 -46 -500 -90 -96 -18 -238
-43 -315 -54 -77 -12 -176 -28 -220 -36 -148 -26 -649 -106 -720 -115 -38 -4
-140 -18 -225 -29 -85 -12 -229 -30 -320 -42 -91 -11 -214 -26 -275 -34 -60
-7 -157 -19 -215 -25 -58 -6 -154 -18 -215 -25 -60 -8 -164 -19 -230 -25 -66
-6 -163 -18 -215 -25 -52 -8 -174 -21 -270 -30 -96 -9 -200 -20 -230 -25 -30
-6 -126 -17 -215 -25 -88 -8 -205 -22 -260 -29 -55 -8 -143 -19 -195 -25 -139
-15 -339 -39 -465 -56 -60 -9 -182 -24 -270 -35 -88 -11 -207 -26 -265 -34
-58 -9 -208 -29 -335 -46 -320 -41 -505 -67 -610 -84 -49 -9 -110 -18 -135
-21 -25 -3 -139 -21 -255 -40 -115 -19 -327 -52 -470 -75 -143 -23 -314 -50
-380 -60 -117 -19 -285 -44 -625 -95 -91 -14 -250 -36 -355 -50 -104 -14 -235
-32 -290 -40 -55 -8 -158 -22 -230 -30 -71 -9 -157 -21 -190 -26 -33 -6 -94
-15 -135 -19 -101 -11 -628 -79 -660 -84 -14 -3 -56 -8 -95 -11 -38 -3 -110
-12 -160 -20 -49 -8 -144 -19 -210 -25 -66 -5 -165 -17 -220 -25 -55 -7 -129
-16 -165 -19 -36 -3 -186 -17 -335 -30 -148 -14 -342 -30 -430 -37 -88 -6
-209 -15 -270 -19 -60 -5 -207 -13 -325 -19 -118 -6 -262 -16 -320 -21 -58 -6
-208 -15 -335 -20 -126 -6 -324 -17 -440 -25 -115 -8 -336 -19 -490 -25 -154
-5 -388 -15 -520 -21 -150 -7 -523 -10 -995 -8 -1033 5 -1869 2 -2470 -11
-628 -13 -1991 -13 -2365 0 -154 5 -487 16 -740 25 -709 23 -1015 35 -1200 46
-93 5 -273 14 -400 19 -296 11 -983 51 -1205 70 -58 5 -213 14 -345 20 -132 6
-289 15 -350 20 -103 9 -220 15 -695 40 -107 6 -253 15 -325 20 -71 5 -224 14
-340 20 -115 6 -266 15 -335 20 -69 5 -246 16 -395 25 -148 8 -331 20 -405 25
-74 6 -227 15 -340 20 -113 5 -308 16 -435 25 -126 8 -338 19 -470 25 -132 5
-323 14 -425 19 -102 6 -300 15 -440 21 -140 6 -361 18 -490 26 -129 8 -311
19 -405 24 -246 14 -482 29 -625 40 -69 5 -208 15 -310 20 -102 6 -228 16
-280 21 -52 6 -158 14 -235 19 -225 16 -710 67 -1135 120 -85 10 -202 24 -260
30 -58 6 -157 17 -220 25 -63 8 -225 26 -360 40 -244 26 -572 63 -790 90 -63
8 -178 21 -255 30 -77 8 -183 22 -235 30 -52 7 -135 19 -185 25 -49 6 -126 18
-170 25 -44 7 -120 18 -170 25 -49 6 -126 18 -170 25 -44 8 -156 25 -250 40
-93 14 -195 30 -225 35 -30 6 -111 19 -180 30 -69 10 -197 31 -285 45 -88 14
-218 34 -290 46 -152 23 -324 51 -485 79 -63 11 -185 31 -270 45 -85 14 -231
39 -325 55 -93 16 -264 45 -380 65 -115 20 -266 45 -335 56 -69 11 -132 21
-140 24 -8 2 -58 11 -110 19 -121 18 -694 115 -950 161 -296 52 -582 102 -715
125 -297 49 -708 126 -1025 191 -190 39 -464 95 -610 124 -616 125 -1154 250
-1520 354 -182 52 -483 162 -646 236 l-72 33 -42 108 c-76 198 -130 373 -174
567 l-7 29 38 -28 c21 -16 63 -51 94 -79 60 -55 156 -129 204 -159 16 -10 50
-36 74 -57 24 -22 49 -39 56 -39 7 0 30 -12 51 -27 43 -30 149 -88 234 -129
30 -14 73 -36 95 -47 54 -28 168 -62 365 -109 68 -17 184 -29 291 -33 104 -3
117 -8 243 -92 26 -18 54 -33 61 -33 7 0 24 -9 39 -21 43 -33 255 -121 416
-171 195 -60 351 -82 589 -80 177 0 292 17 411 58 25 8 66 21 92 29 54 15 254
110 263 125 4 6 28 22 55 35 47 24 91 58 203 157 26 24 49 44 51 46 2 1 14 -2
28 -7 14 -5 52 -12 84 -14 130 -11 141 -15 181 -70 21 -28 54 -71 73 -97 37
-50 269 -280 282 -280 4 0 30 -20 58 -45 28 -24 64 -52 81 -60 17 -9 51 -32
76 -51 24 -19 49 -34 55 -34 5 0 24 -12 41 -26 16 -14 60 -40 96 -58 36 -18
75 -37 86 -43 61 -33 192 -93 203 -93 7 0 27 -7 45 -16 109 -57 439 -107 652
-100 166 6 362 31 455 58 30 9 71 21 90 27 86 25 204 71 229 88 14 11 51 32
81 46 30 15 69 37 87 50 18 12 51 34 75 50 93 59 112 74 162 117 87 78 79 75
133 44 26 -15 62 -38 79 -51 16 -12 55 -34 85 -47 29 -14 65 -32 79 -40 51
-29 195 -96 208 -96 7 0 26 -7 42 -15 38 -20 211 -66 285 -76 213 -29 391 -32
575 -9 196 25 182 25 215 -9 17 -17 55 -50 85 -73 30 -23 74 -61 97 -84 23
-24 56 -50 75 -59 18 -10 46 -29 61 -44 38 -35 147 -103 227 -142 36 -17 76
-40 89 -50 13 -11 46 -26 74 -34 28 -8 61 -22 74 -31 26 -17 136 -56 223 -80
30 -9 77 -22 104 -31 100 -33 375 -55 536 -43 142 10 255 27 297 45 18 8 60
21 95 30 34 9 76 24 93 34 17 9 52 25 79 34 27 9 63 27 80 40 17 13 55 36 84
51 29 15 69 42 90 60 20 18 55 45 77 59 22 14 80 64 130 111 l89 86 26 -24
c14 -13 39 -32 55 -42 17 -10 50 -35 75 -55 25 -20 61 -45 80 -54 19 -10 44
-26 55 -36 11 -10 50 -32 87 -48 37 -17 69 -35 72 -40 4 -5 32 -19 64 -31 31
-11 77 -31 102 -44 25 -13 61 -27 80 -31 19 -4 51 -15 70 -25 20 -10 61 -23
93 -29 31 -6 66 -15 77 -21 20 -11 113 -26 242 -38 57 -6 72 -12 100 -38 18
-18 47 -39 65 -48 18 -9 58 -34 89 -56 32 -22 62 -40 68 -40 6 0 28 -11 49
-26 21 -14 57 -32 80 -40 23 -8 65 -25 92 -39 28 -13 73 -31 100 -40 28 -9 70
-23 95 -31 25 -8 72 -24 105 -35 33 -10 72 -19 87 -19 15 0 39 -5 55 -11 66
-26 337 -39 508 -25 144 12 374 71 475 122 25 13 63 30 84 39 22 9 56 28 75
43 20 15 50 34 68 42 39 18 150 107 213 171 l45 46 99 6 99 7 60 -40 c32 -22
64 -40 71 -40 6 0 36 -16 66 -35 30 -19 61 -35 69 -35 7 0 41 -13 75 -29 34
-17 81 -36 106 -45 56 -18 127 -41 205 -67 33 -10 72 -19 87 -19 15 0 39 -5
55 -11 69 -27 350 -40 523 -25 98 9 185 28 355 81 153 47 223 65 258 65 13 0
50 7 82 15 53 14 66 14 120 1 151 -37 221 -47 370 -54 202 -10 424 5 560 38
183 43 325 84 420 121 l50 19 110 -56 c187 -94 415 -177 590 -214 28 -6 70
-15 93 -21 108 -24 255 -31 527 -23 388 10 478 8 514 -10 73 -38 335 -101 466
-111 170 -15 417 -4 494 21 25 8 57 14 72 14 16 0 53 9 83 20 l54 21 47 -26
c27 -14 54 -25 60 -25 7 0 33 -11 56 -25 24 -14 52 -25 61 -25 10 0 46 -11 80
-24 96 -37 201 -66 236 -66 17 0 43 -5 57 -10 40 -15 349 -22 425 -10 153 25
268 55 343 89 161 72 148 70 230 41 31 -11 77 -20 101 -20 25 0 57 -5 73 -11
45 -17 336 -15 423 4 215 46 247 54 291 73 33 14 56 14 260 0 123 -9 253 -21
289 -27 121 -19 235 -31 331 -33 89 -3 98 -5 139 -35 23 -17 48 -31 54 -31 6
0 33 -15 59 -34 27 -19 63 -38 80 -42 18 -3 52 -17 77 -30 25 -13 61 -27 80
-30 19 -3 53 -13 75 -21 55 -21 252 -45 380 -45 144 0 383 43 505 92 25 10 65
25 90 33 77 25 183 73 224 101 21 14 45 26 52 26 7 0 33 16 58 35 91 69 106
73 351 94 219 19 227 19 283 1 123 -39 325 -85 417 -95 304 -33 571 -17 805
47 109 30 223 71 272 98 27 15 54 12 89 -9 39 -24 228 -84 329 -105 102 -21
193 -29 330 -28 214 1 370 27 585 98 37 12 76 15 150 13 307 -11 564 10 694
56 23 8 69 19 103 25 66 12 76 9 262 -81 33 -16 67 -29 76 -29 10 0 37 -9 62
-20 24 -10 64 -22 88 -26 25 -3 70 -13 100 -22 82 -24 509 -23 598 1 35 9 72
17 82 17 18 0 149 37 215 61 17 6 50 18 75 26 53 17 188 75 245 105 145 75
154 78 283 92 l127 13 40 -42 c22 -23 60 -55 85 -72 25 -17 54 -41 65 -53 11
-12 37 -31 58 -42 22 -11 60 -34 85 -52 26 -19 58 -37 72 -41 14 -4 45 -19 70
-33 25 -14 72 -34 105 -43 33 -10 78 -24 100 -33 22 -8 54 -15 70 -16 17 0 50
-8 75 -17 66 -24 541 -24 615 0 28 9 64 17 80 17 17 1 48 8 70 16 22 8 69 23
105 33 90 26 176 57 234 83 105 49 263 131 291 153 17 12 48 31 71 43 22 11
47 28 54 37 8 10 46 39 85 65 39 26 77 55 85 65 7 9 30 25 49 35 20 10 68 46
106 80 90 79 103 85 205 99 187 27 796 151 1012 207 55 14 58 13 106 -11 28
-14 74 -41 102 -60 29 -19 64 -38 79 -42 14 -3 57 -21 96 -40 38 -18 79 -33
91 -33 12 0 43 -9 68 -20 95 -40 370 -65 556 -50 180 15 260 26 302 44 21 9
50 16 65 16 15 0 51 11 79 24 28 13 66 27 85 31 19 4 60 20 91 36 32 16 63 29
71 29 7 0 39 15 70 34 31 19 73 40 92 46 20 7 56 27 80 45 24 19 58 41 76 51
18 9 62 39 97 65 89 69 93 71 138 55 72 -25 193 -56 221 -56 16 0 53 -7 83
-15 77 -21 350 -30 485 -16 222 23 324 44 425 86 30 12 68 26 83 29 16 4 46
18 68 31 21 14 42 25 47 25 14 0 226 110 247 129 11 10 41 29 67 43 l47 26 34
-24 c19 -12 37 -30 40 -38 4 -9 37 -36 74 -61 37 -25 83 -56 101 -68 82 -55
168 -107 186 -113 12 -4 34 -16 51 -27 38 -28 155 -69 340 -122 90 -26 227
-45 389 -54 88 -6 163 -8 167 -5 4 2 40 6 81 8 111 7 235 25 276 41 21 7 55
16 76 20 62 10 276 99 366 151 14 8 52 28 85 44 33 16 71 38 85 48 14 11 70
49 125 86 55 37 120 82 145 101 122 94 283 254 338 336 17 25 38 51 47 59 9 8
27 34 40 59 42 84 37 82 395 144 179 32 408 71 510 87 102 17 266 46 365 65
134 26 217 37 325 41 80 2 161 9 180 14 53 15 147 12 180 -5 16 -9 51 -18 77
-21 27 -3 68 -12 93 -20 116 -35 507 -52 700 -30 150 17 431 89 515 133 22 11
65 33 95 47 85 41 191 99 234 129 21 15 44 27 51 27 7 0 34 19 60 43 27 23 63
51 81 62 52 32 144 105 212 167 34 32 66 58 70 58 5 0 21 18 38 40 31 42 49
52 40 23z m-33407 -38 c59 -20 61 -36 9 -102 -25 -32 -52 -71 -60 -87 l-15
-28 -17 48 c-10 27 -24 71 -32 98 -7 28 -16 58 -19 67 -10 30 54 31 134 4z
m23329 -252 l114 -117 -28 -24 c-69 -57 -101 -72 -176 -83 -85 -14 -136 -5
-180 30 l-23 19 27 29 c35 38 92 137 118 206 12 32 24 57 27 57 4 0 58 -53
121 -117z m-27142 30 l76 -68 -6 -65 c-4 -36 -9 -96 -12 -133 -6 -67 -7 -68
-33 -63 -14 3 -94 10 -177 17 l-151 12 26 47 c14 25 36 60 49 76 28 35 87 132
118 197 13 26 27 47 30 47 3 0 39 -30 80 -67z m7609 -50 c4 -16 8 -37 11 -48
3 -11 9 -47 13 -80 13 -94 66 -294 120 -449 12 -33 21 -65 21 -73 0 -15 -75
-93 -188 -196 -73 -67 -74 -67 -130 -66 -31 0 -130 8 -218 17 l-161 17 32 65
c28 57 110 209 143 265 19 33 83 177 102 230 10 28 25 68 33 90 9 22 18 52 21
67 4 16 24 41 48 60 23 18 63 54 88 80 25 27 48 48 52 48 4 0 10 -12 13 -27z
m-16424 -89 c29 -19 68 -49 87 -65 19 -17 53 -39 76 -49 23 -9 48 -25 55 -34
12 -14 11 -19 -5 -31 -10 -8 -30 -18 -44 -21 -14 -4 -38 -13 -53 -21 -50 -25
-169 -51 -277 -61 -106 -10 -317 1 -333 17 -10 10 44 51 113 85 30 14 76 41
101 59 26 17 59 40 75 49 16 10 53 38 82 63 29 25 57 45 61 45 5 0 33 -16 62
-36z m28924 -89 c123 -61 203 -141 241 -245 24 -65 20 -208 -6 -260 -49 -95
-125 -149 -211 -150 -120 0 -198 31 -317 127 -94 76 -162 208 -162 313 1 85
62 178 152 229 45 26 55 28 141 24 81 -3 101 -7 162 -38z m-27150 -105 c358
-80 1307 -264 1675 -325 118 -20 219 -37 224 -39 17 -4 -126 -98 -226 -148
-100 -50 -162 -74 -233 -88 -175 -35 -221 -41 -342 -41 -199 0 -340 23 -468
78 -201 85 -195 82 -354 186 -189 125 -195 130 -320 251 -66 64 -131 144 -131
161 0 3 8 4 18 1 9 -3 80 -19 157 -36z m22139 9 c48 -24 105 -73 131 -113 60
-91 13 -297 -92 -402 -105 -106 -162 -140 -259 -160 l-30 -6 10 74 c14 98 10
481 -5 536 -15 53 -3 68 68 88 63 18 119 12 177 -17z m9976 -43 c0 -35 9 -92
19 -127 11 -35 22 -84 25 -109 4 -25 20 -73 36 -105 47 -94 45 -99 -52 -119
-161 -33 -355 -67 -558 -96 -113 -16 -219 -32 -236 -35 l-32 -5 30 82 c16 46
32 101 36 123 l7 40 100 11 c55 6 116 18 135 27 19 9 54 23 78 32 64 22 163
101 287 230 61 62 113 114 118 114 4 1 7 -28 7 -63z m-7725 -23 c-11 -142 -35
-270 -66 -353 -49 -130 -122 -270 -141 -270 -22 0 -69 33 -97 69 -44 55 -59
96 -66 182 -12 124 38 238 142 326 55 46 132 94 178 111 57 20 57 19 50 -65z
m-6469 -190 c-40 -80 -47 -102 -52 -177 -7 -89 4 -169 32 -234 20 -47 19 -51
-31 -73 -63 -28 -158 -15 -232 31 -29 18 -53 36 -53 40 0 4 20 30 43 56 24 27
60 74 80 104 20 30 49 73 64 95 27 41 67 104 138 218 32 52 42 62 48 48 6 -12
-5 -45 -37 -108z m8493 -208 c50 -82 233 -241 388 -337 108 -66 294 -118 402
-110 79 5 177 24 209 41 20 10 48 22 61 26 48 15 157 95 214 156 54 58 60 62
70 44 12 -22 153 -164 240 -243 32 -28 55 -52 50 -52 -4 0 -93 -7 -198 -15
-206 -16 -862 -34 -1280 -35 -252 0 -262 1 -302 23 -80 44 -132 82 -133 97 0
9 20 47 45 84 25 38 45 74 45 80 0 6 13 31 30 56 16 24 32 58 36 75 3 16 17
48 29 70 13 22 26 55 30 73 4 18 12 31 18 29 6 -2 27 -30 46 -62z m12801 -7
c-23 -18 -57 -42 -76 -53 -18 -12 -41 -28 -51 -36 -53 -46 -280 -155 -403
-195 -146 -47 -415 -69 -553 -44 -204 35 -280 57 -406 118 -75 36 -90 47 -75
53 24 10 218 32 549 64 529 51 586 57 806 90 123 18 230 33 238 34 8 1 -5 -14
-29 -31z m-16632 -225 c14 -160 44 -311 71 -362 7 -13 10 -25 8 -28 -3 -2 -72
-11 -154 -18 -81 -8 -236 -23 -343 -34 -107 -11 -231 -22 -275 -26 -44 -3
-104 -8 -132 -11 -64 -7 -65 -2 -21 83 l32 62 60 -1 c168 -4 377 89 516 232
30 31 64 63 75 71 11 8 47 44 79 82 33 37 63 67 66 67 4 0 12 -53 18 -117z
m-4170 -122 c7 -21 22 -53 35 -72 13 -19 31 -53 40 -76 20 -51 32 -48 -130
-31 l-114 11 29 31 c16 17 46 64 68 104 21 39 43 72 50 72 6 0 16 -17 22 -39z
m-12448 -87 c80 -9 152 -18 160 -21 20 -6 -16 -34 -102 -78 -138 -71 -261
-104 -423 -111 -114 -5 -279 6 -293 21 -10 10 20 25 53 25 17 1 48 8 70 16 22
9 68 24 101 33 34 10 77 27 95 39 64 39 164 90 179 91 8 1 80 -6 160 -15z
m2580 -274 c266 -30 633 -60 738 -60 55 0 65 -3 98 -32 20 -18 52 -42 69 -53
30 -19 55 -36 161 -115 22 -16 55 -35 72 -41 18 -6 32 -14 32 -17 0 -9 -102
-47 -175 -65 -277 -70 -484 -45 -862 101 -87 34 -121 54 -235 143 -73 57 -149
112 -169 122 -20 10 -45 27 -55 39 l-19 21 45 -7 c25 -4 160 -20 300 -36z
m3264 -135 c36 -6 154 -125 134 -136 -40 -21 -312 -28 -398 -10 -25 5 -76 17
-114 27 l-69 18 36 30 c20 17 51 43 69 58 l33 27 140 -5 c77 -3 153 -7 169 -9z
m-13964 -2575 c228 -43 456 -86 505 -94 50 -8 191 -33 315 -55 408 -75 448
-82 567 -101 65 -10 179 -30 253 -44 74 -14 167 -31 205 -37 39 -5 117 -19
175 -29 120 -22 267 -47 560 -95 113 -19 284 -47 380 -64 96 -17 218 -37 270
-46 52 -9 142 -24 200 -35 58 -11 150 -26 205 -34 55 -8 208 -34 340 -56 132
-23 269 -46 305 -51 36 -4 103 -16 150 -24 47 -9 139 -25 205 -35 145 -23 466
-74 590 -94 50 -9 151 -25 225 -36 74 -11 189 -29 255 -40 182 -29 489 -76
685 -104 96 -14 238 -34 315 -46 77 -11 181 -24 230 -30 50 -5 227 -25 395
-45 168 -20 348 -40 400 -45 52 -5 147 -16 211 -24 63 -8 176 -20 250 -26 74
-6 172 -17 219 -25 47 -8 121 -17 165 -20 44 -4 141 -15 215 -25 74 -11 180
-24 235 -29 55 -6 156 -17 225 -25 69 -8 247 -27 395 -41 149 -13 367 -34 485
-46 118 -11 286 -24 375 -29 154 -9 359 -24 475 -35 30 -3 147 -10 260 -15
113 -6 261 -15 330 -20 179 -14 405 -26 900 -50 705 -34 1433 -70 1605 -80 88
-6 275 -16 415 -25 405 -23 597 -35 720 -46 63 -5 201 -13 305 -19 105 -5 303
-16 440 -24 561 -36 951 -59 1135 -67 107 -4 254 -13 325 -18 72 -6 216 -15
320 -21 304 -17 671 -40 790 -51 61 -5 155 -9 211 -9 56 0 157 -4 225 -10 183
-14 526 -30 854 -40 160 -5 472 -15 695 -24 1031 -39 1976 -51 2675 -36 308 7
1426 16 2485 20 1579 5 1977 10 2215 23 160 9 382 21 495 26 409 21 993 56
1185 72 66 5 201 13 300 18 294 15 1056 81 1285 111 41 6 158 19 260 30 185
19 263 29 635 75 110 14 238 30 285 36 47 5 128 16 180 24 52 8 187 26 300 41
113 14 268 34 345 45 77 10 176 24 220 30 44 5 121 16 170 24 50 8 128 19 175
25 47 6 130 18 185 26 55 8 129 19 165 24 86 12 247 37 395 61 482 77 641 103
870 138 143 23 303 48 355 56 52 8 131 19 175 25 44 6 123 17 175 25 52 8 149
22 215 30 66 9 152 20 190 25 39 6 160 21 270 35 110 14 265 35 345 46 80 11
186 24 235 29 85 9 181 20 455 55 63 7 165 19 225 25 61 6 157 18 215 25 58 8
157 19 220 25 63 6 165 17 225 25 61 8 162 19 225 26 63 6 167 17 230 25 63 8
160 19 215 25 55 5 154 16 220 25 66 8 165 20 220 25 55 5 123 13 150 18 28 6
97 15 155 21 58 7 166 21 240 32 74 10 169 23 211 28 42 5 132 18 200 30 167
28 366 60 409 65 19 3 85 14 145 25 173 30 352 57 590 90 121 17 252 35 290
40 223 32 884 108 1120 130 50 4 171 17 270 29 217 25 469 50 473 47 4 -5
-332 -539 -414 -660 -301 -439 -637 -843 -1294 -1557 -124 -135 -326 -357
-450 -494 -441 -490 -592 -639 -1140 -1124 -351 -310 -917 -821 -1270 -1145
-527 -485 -779 -682 -1530 -1196 -209 -143 -241 -167 -836 -626 -215 -166
-452 -347 -525 -402 -379 -281 -1141 -765 -1561 -989 -172 -92 -283 -146 -648
-316 -124 -58 -373 -176 -555 -262 -512 -243 -875 -403 -1330 -585 -537 -215
-1090 -447 -1450 -610 -540 -244 -844 -377 -1050 -460 -446 -179 -874 -330
-1235 -435 -299 -86 -388 -105 -604 -126 -54 -5 -122 -16 -149 -24 -28 -8 -74
-15 -102 -15 -28 0 -75 -7 -105 -15 -30 -9 -92 -20 -137 -25 -45 -5 -99 -16
-120 -24 -21 -8 -66 -17 -99 -20 -34 -3 -81 -12 -105 -20 -24 -8 -80 -20 -124
-25 -44 -6 -98 -17 -120 -25 -22 -8 -61 -15 -87 -16 -25 0 -75 -9 -110 -20
-34 -11 -81 -20 -103 -20 -22 0 -73 -9 -113 -20 -39 -11 -89 -20 -110 -20 -21
0 -72 -9 -113 -20 -41 -11 -94 -20 -119 -20 -25 0 -61 -5 -80 -11 -19 -6 -73
-15 -120 -19 -274 -27 -343 -32 -415 -34 -44 -2 -147 -8 -230 -15 -82 -6 -184
-13 -225 -15 -101 -4 -557 -35 -700 -48 -359 -31 -583 -35 -1710 -32 -1372 3
-2059 10 -2810 29 -74 2 -162 4 -195 5 -33 1 -190 8 -350 17 -159 8 -321 17
-360 18 -38 1 -137 8 -220 15 -82 7 -184 14 -225 16 -169 5 -742 49 -1095 84
-55 5 -148 13 -206 18 -58 5 -111 12 -118 16 -7 5 -60 12 -119 17 -258 21
-310 27 -323 34 -7 5 -63 12 -123 16 -207 15 -313 26 -326 34 -7 4 -49 11 -94
15 -78 8 -209 30 -291 51 -22 5 -69 15 -105 21 -36 6 -100 21 -143 34 -43 13
-91 24 -107 24 -16 0 -52 9 -80 20 -28 11 -128 40 -223 64 -481 123 -998 296
-1530 512 -196 79 -275 114 -527 229 -52 24 -105 46 -118 50 -12 3 -82 34
-155 67 -546 249 -1060 467 -1712 728 -455 182 -818 342 -1330 585 -181 86
-431 204 -555 262 -365 170 -476 224 -648 316 -420 224 -1182 708 -1561 989
-73 55 -310 236 -525 402 -595 459 -627 483 -836 626 -751 514 -1003 711
-1530 1196 -353 324 -919 835 -1270 1145 -548 485 -699 634 -1140 1124 -124
137 -326 359 -450 494 -560 609 -830 925 -1107 1298 -167 225 -248 346 -498
748 -120 193 -229 368 -243 389 l-24 39 23 -6 c13 -4 211 -43 439 -87z"/>
<path d="M39872 48199 c-675 -60 -1263 -323 -1735 -776 -603 -579 -953 -1303
-1053 -2178 -21 -182 -24 -602 -5 -780 85 -825 370 -1528 928 -2286 105 -143
198 -227 395 -359 184 -122 415 -233 604 -288 38 -12 120 -39 182 -61 118 -43
271 -77 477 -108 152 -23 750 -26 940 -5 507 56 879 134 1156 243 769 302
1274 903 1493 1774 51 206 94 492 116 774 13 175 13 950 0 1156 -38 580 -134
1033 -299 1403 -196 441 -528 775 -1016 1024 -209 106 -336 159 -590 243 -324
108 -606 173 -915 210 -162 19 -535 27 -678 14z m1683 -693 c156 -28 256 -78
334 -168 92 -107 125 -180 136 -291 15 -166 -95 -334 -283 -435 -76 -40 -100
-48 -237 -78 -162 -36 -473 11 -620 93 -72 40 -148 132 -183 221 -115 294 29
538 374 632 141 39 343 50 479 26z"/>
<path d="M25950 44953 c-185 -14 -424 -60 -617 -119 -315 -95 -622 -256 -903
-475 -117 -90 -334 -300 -449 -434 -654 -759 -946 -1821 -795 -2895 88 -630
334 -1256 716 -1828 180 -269 278 -391 383 -477 252 -207 452 -316 815 -442
309 -108 482 -148 772 -178 409 -42 1043 9 1567 127 745 167 1324 601 1656
1241 195 376 305 804 357 1397 17 189 17 1027 0 1240 -29 366 -67 614 -133
875 -163 637 -442 1042 -945 1368 -463 300 -1203 539 -1844 597 -106 9 -474
11 -580 3z m1643 -934 c160 -23 292 -85 363 -169 99 -119 132 -187 141 -297
22 -278 -286 -524 -657 -525 -104 0 -300 31 -387 62 -182 64 -296 213 -313
408 -16 195 72 343 260 437 141 70 421 110 593 84z"/>
<path d="M34525 37622 c-75 -28 -105 -46 -158 -92 -97 -86 -146 -188 -154
-325 -9 -137 27 -243 113 -335 56 -60 119 -93 219 -115 164 -36 293 -14 400
69 111 87 165 189 173 327 11 193 -89 361 -268 447 -69 33 -84 37 -175 39 -78
3 -111 -1 -150 -15z"/>
<path d="M47130 21471 c-14 -5 -41 -9 -60 -10 -31 -1 -73 -14 -182 -58 -20 -9
-49 -27 -65 -42 -15 -15 -45 -39 -66 -55 -60 -44 -127 -154 -181 -296 -43
-115 -44 -367 0 -451 8 -16 14 -36 14 -45 0 -34 84 -202 135 -269 61 -79 150
-172 216 -226 66 -54 294 -169 335 -169 9 0 40 -6 68 -14 90 -25 178 -34 273
-26 50 4 96 11 102 14 6 4 36 14 67 22 31 8 68 23 83 33 14 10 36 22 49 26 32
9 141 109 193 174 57 73 115 187 129 252 17 85 31 232 24 259 -3 14 -10 50
-15 80 -17 117 -28 157 -58 218 -64 127 -153 251 -216 299 -22 17 -65 51 -95
74 -89 69 -242 127 -520 199 -52 13 -202 20 -230 11z m578 -585 c111 -105 157
-205 149 -326 -8 -123 -53 -214 -127 -254 -81 -44 -89 -41 -115 39 -25 81 -53
188 -67 260 -11 60 -14 307 -4 353 l8 32 56 -31 c32 -18 76 -50 100 -73z"/>
<path d="M14570 20316 c-3 -3 -35 -10 -70 -15 -36 -6 -92 -22 -125 -36 -33
-13 -68 -25 -79 -25 -10 0 -70 -23 -134 -50 -99 -44 -129 -63 -214 -136 -54
-47 -98 -89 -98 -94 0 -5 -11 -22 -25 -38 -14 -16 -48 -76 -76 -132 -48 -94
-53 -111 -66 -219 -14 -123 -10 -220 12 -286 7 -22 16 -53 20 -70 9 -39 69
-138 118 -195 92 -106 228 -188 355 -216 122 -26 321 -15 394 22 15 8 35 14
44 14 20 0 159 68 230 113 169 106 316 310 371 517 26 94 37 238 24 301 -6 30
-11 64 -11 74 0 63 -150 303 -212 340 -18 10 -52 33 -75 51 -24 18 -64 37 -93
43 -28 6 -59 15 -68 20 -19 10 -215 25 -222 17z m-255 -478 c38 -170 31 -333
-27 -575 -11 -47 -15 -53 -37 -53 -15 0 -48 13 -75 28 -116 64 -164 268 -96
403 29 55 105 140 163 180 63 44 65 45 72 17z"/>
<path d="M25795 20072 c-33 -8 -94 -29 -135 -48 -41 -18 -86 -36 -100 -40 -14
-4 -65 -29 -115 -57 -226 -125 -389 -364 -426 -624 -13 -94 -5 -265 16 -325 8
-24 15 -50 15 -58 0 -15 10 -36 61 -129 41 -74 169 -195 246 -232 80 -38 128
-49 240 -54 190 -8 429 98 586 260 181 187 285 433 288 680 2 232 -97 435
-274 563 -25 18 -63 38 -84 43 -21 5 -54 14 -73 19 -63 16 -182 18 -245 2z
m-329 -823 c24 -6 44 -14 44 -18 0 -3 -20 -46 -45 -96 -25 -49 -45 -96 -45
-102 0 -26 -18 -12 -33 26 -20 49 -41 166 -33 186 7 18 50 19 112 4z"/>
<path d="M22195 19757 c-119 -16 -261 -76 -366 -154 -70 -52 -192 -184 -236
-255 -87 -140 -128 -252 -144 -393 -24 -199 31 -387 159 -543 63 -77 190 -150
308 -177 137 -32 243 -21 409 43 64 24 203 130 259 196 55 65 126 166 126 179
0 5 20 38 45 73 25 35 52 81 59 101 8 21 22 52 30 70 9 17 21 57 26 88 5 30
11 59 14 64 13 21 8 227 -7 266 -8 22 -18 54 -22 70 -17 80 -161 253 -250 301
-27 15 -61 33 -74 40 -51 27 -236 44 -336 31z m202 -463 c91 -43 125 -117 113
-244 -10 -109 -86 -256 -179 -345 -57 -55 -57 -56 -92 155 -27 161 -27 420 -2
464 9 14 104 -4 160 -30z"/>
<path d="M29210 19250 c-147 -22 -324 -134 -410 -260 -143 -210 -181 -441
-120 -734 5 -27 34 -97 62 -155 47 -94 64 -117 149 -201 149 -148 328 -290
365 -290 6 0 40 -9 74 -20 143 -46 322 -15 444 76 139 104 237 246 277 403 26
101 37 339 19 419 -36 167 -90 300 -159 397 -189 266 -451 402 -701 365z
m-117 -701 c26 -58 47 -110 47 -116 0 -6 9 -31 20 -56 31 -70 80 -287 65 -287
-4 0 -26 17 -51 38 -102 84 -176 245 -176 382 0 74 26 171 42 153 4 -4 28 -56
53 -114z"/>
<path d="M38660 19265 c-104 -18 -163 -36 -252 -79 -100 -48 -211 -155 -256
-248 -64 -129 -73 -164 -73 -270 0 -54 3 -103 6 -108 3 -4 10 -31 15 -59 16
-86 101 -221 194 -308 44 -41 97 -86 117 -98 19 -13 56 -41 81 -63 102 -88
230 -141 402 -168 100 -15 151 -12 266 15 166 41 349 185 414 326 103 226 78
456 -75 686 -62 94 -258 260 -349 296 -19 7 -46 20 -60 27 -41 22 -189 54
-275 59 -45 3 -113 -1 -155 -8z"/>
</g>
</svg>
